<?xml version="1.0" encoding="UTF-8" standalone="no"?>
<!-- Created with Inkscape (http://www.inkscape.org/) -->

<svg
   xmlns:dc="http://purl.org/dc/elements/1.1/"
   xmlns:cc="http://creativecommons.org/ns#"
   xmlns:rdf="http://www.w3.org/1999/02/22-rdf-syntax-ns#"
   xmlns:svg="http://www.w3.org/2000/svg"
   xmlns="http://www.w3.org/2000/svg"
   version="1.1"
   width="451.67499"
   height="207.1375"
   id="svg3806"
   xml:space="preserve"><metadata
     id="metadata3812"><rdf:RDF><cc:Work
         rdf:about=""><dc:format>image/svg+xml</dc:format><dc:type
           rdf:resource="http://purl.org/dc/dcmitype/StillImage" /><dc:title></dc:title></cc:Work></rdf:RDF></metadata><defs
     id="defs3810" /><g
     transform="matrix(1.25,0,0,-1.25,0,207.1375)"
     id="g3814"><g
       transform="scale(0.1,0.1)"
       id="g3816"><path
         d="m 0,0 3613.37,0 0,1657.07 L 0,1657.07 0,0 z"
         id="path3818"
         style="fill:#ffffff;fill-opacity:1;fill-rule:nonzero;stroke:none" /><path
         d="m 349.324,451.48 0,-121.179 -80.062,121.179 -19.899,0 0,-152.679 19.899,0 0,121.398 80.062,-121.398 19.91,0 0,152.679 -19.91,0 z m 106.52,-131.679 -47.903,131.461 -21.218,0 57.531,-152.461 22.969,0 57.519,152.461 -20.988,0 -47.91,-131.461 z m 78.969,55.34 c 0,-45.719 33.46,-77.653 76.121,-77.653 33.019,0 59.269,16.403 70.648,45.723 l -23.84,0 c -8.32,-18.16 -24.5,-28.441 -46.808,-28.441 -31.942,0 -55.782,23.191 -55.782,60.371 0,37.398 23.84,60.589 55.782,60.589 22.308,0 38.488,-10.281 46.808,-28.648 l 23.84,0 c -11.379,29.527 -37.629,46.148 -70.648,46.148 -42.661,0 -76.121,-32.371 -76.121,-78.089 m 229.671,-76.34 19.899,0 0,103.461 25.16,0 0,16.41 -25.16,0 0,8.527 c 0,15.531 5.91,22.09 23.84,22.09 l 0,16.633 c -30.621,0 -43.739,-12.031 -43.739,-38.723 l 0,-8.527 -15.531,0 0,-16.41 15.531,0 0,-103.461 z m 56.43,60.371 c 0,-37.184 24.719,-62.34 56.649,-62.34 22.089,0 37.621,11.379 44.839,24.277 l 0,-22.308 20.129,0 0,119.871 -20.129,0 0,-21.871 c -7,12.461 -22.308,23.84 -44.621,23.84 -32.148,0 -56.867,-24.059 -56.867,-61.469 m 101.488,-0.223 c 0,-28.211 -18.808,-44.617 -40.679,-44.617 -21.879,0 -40.469,16.629 -40.469,44.84 0,28.219 18.59,44.187 40.469,44.187 21.871,0 40.679,-16.629 40.679,-44.41 m 42,0 c 0,-38.058 24.282,-62.117 58.398,-62.117 29.75,0 49.22,16.629 55.34,40.469 l -21.43,0 c -4.38,-15.09 -16.19,-23.621 -33.91,-23.621 -21.87,0 -38.058,15.531 -38.058,45.269 0,29.321 16.188,44.852 38.058,44.852 17.72,0 29.75,-9.192 33.91,-23.629 l 21.43,0 c -6.12,25.16 -25.59,40.469 -55.34,40.469 -34.116,0 -58.398,-24.059 -58.398,-61.692 m 135.828,-60.148 19.91,0 0,119.871 -19.91,0 0,-119.871 z m 10.28,139.34 c 7.22,0 13.13,5.898 13.13,13.558 0,7.653 -5.91,13.563 -13.13,13.563 -7.65,0 -13.56,-5.91 -13.56,-13.563 0,-7.66 5.91,-13.558 13.56,-13.558 m 39.15,-139.34 19.91,0 0,161.871 -19.91,0 0,-161.871 z m 49.44,0 19.91,0 0,119.871 -19.91,0 0,-119.871 z m 10.28,139.34 c 7.22,0 13.12,5.898 13.12,13.558 0,7.653 -5.9,13.563 -13.12,13.563 -7.66,0 -13.56,-5.91 -13.56,-13.563 0,-7.66 5.9,-13.558 13.56,-13.558 m 43.52,-106.532 c 0,-24.058 12.03,-32.808 33.25,-32.808 l 17.94,0 0,16.84 -14.66,0 c -12.25,0 -16.62,4.16 -16.62,15.968 l 0,70.653 31.28,0 0,16.41 -31.28,0 0,30.187 -19.91,0 0,-30.187 -15.53,0 0,-16.41 15.53,0 0,-70.653 z m 63.44,27.563 c 0,-37.184 24.71,-62.34 56.65,-62.34 22.09,0 37.62,11.379 44.84,24.277 l 0,-22.308 20.12,0 0,119.871 -20.12,0 0,-21.871 c -7,12.461 -22.31,23.84 -44.62,23.84 -32.16,0 -56.87,-24.059 -56.87,-61.469 m 101.49,-0.223 c 0,-28.211 -18.81,-44.617 -40.68,-44.617 -21.88,0 -40.47,16.629 -40.47,44.84 0,28.219 18.59,44.187 40.47,44.187 21.87,0 40.68,-16.629 40.68,-44.41 m 53.81,-27.34 c 0,-24.058 12.03,-32.808 33.25,-32.808 l 17.93,0 0,16.84 -14.65,0 c -12.25,0 -16.63,4.16 -16.63,15.968 l 0,70.653 31.28,0 0,16.41 -31.28,0 0,30.187 -19.9,0 0,-30.187 -15.53,0 0,-16.41 15.53,0 0,-70.653 z m 70.87,-32.808 19.91,0 0,119.871 -19.91,0 0,-119.871 z m 10.28,139.34 c 7.22,0 13.12,5.898 13.12,13.558 0,7.653 -5.9,13.563 -13.12,13.563 -7.66,0 -13.56,-5.91 -13.56,-13.563 0,-7.66 5.9,-13.558 13.56,-13.558 m 152.89,-79.192 c 0,37.852 -26.46,61.692 -60.59,61.692 -33.9,0 -60.59,-23.84 -60.59,-61.692 0,-38.058 25.81,-62.117 59.72,-62.117 34.12,0 61.46,24.059 61.46,62.117 m -100.83,0 c 0,30.192 19.03,44.41 40.02,44.41 20.57,0 40.47,-14.218 40.47,-44.41 0,-30.398 -20.34,-44.617 -41.12,-44.617 -20.78,0 -39.37,14.219 -39.37,44.617 m 210.42,-60.148 19.69,0 0,70.648 c 0,34.352 -21.22,51.41 -49,51.41 -16.19,0 -30.62,-6.777 -38.5,-19.25 l 0,17.063 -19.9,0 0,-119.871 19.9,0 0,66.281 c 0,25.809 14,38.5 34.34,38.5 20.13,0 33.47,-12.473 33.47,-36.973 l 0,-67.808 z m 94.49,60.371 c 0,-37.184 24.72,-62.34 56.66,-62.34 22.09,0 37.62,11.379 44.84,24.277 l 0,-22.308 20.12,0 0,119.871 -20.12,0 0,-21.871 c -7,12.461 -22.31,23.84 -44.62,23.84 -32.16,0 -56.88,-24.059 -56.88,-61.469 m 101.5,-0.223 c 0,-28.211 -18.81,-44.617 -40.69,-44.617 -21.87,0 -40.46,16.629 -40.46,44.84 0,28.219 18.59,44.187 40.46,44.187 21.88,0 40.69,-16.629 40.69,-44.41 m 137.15,-60.148 19.68,0 0,70.648 c 0,34.352 -21.22,51.41 -49,51.41 -16.18,0 -30.62,-6.777 -38.49,-19.25 l 0,17.063 -19.91,0 0,-119.871 19.91,0 0,66.281 c 0,25.809 14,38.5 34.34,38.5 20.12,0 33.47,-12.473 33.47,-36.973 l 0,-67.808 z m 40.46,60.371 c 0,-37.184 24.72,-62.34 56.87,-62.34 21.88,0 37.41,11.156 44.63,24.5 l 0,-22.531 20.12,0 0,161.871 -20.12,0 0,-63.442 c -8.32,13.782 -25.6,23.411 -44.41,23.411 -32.37,0 -57.09,-24.059 -57.09,-61.469 m 101.5,-0.223 c 0,-28.211 -18.82,-44.617 -40.69,-44.617 -21.87,0 -40.47,16.629 -40.47,44.84 0,28.219 18.6,44.187 40.47,44.187 21.87,0 40.69,-16.629 40.69,-44.41 m 96.02,0 c 0,-38.058 24.28,-62.117 58.4,-62.117 29.75,0 49.22,16.629 55.34,40.469 l -21.43,0 c -4.38,-15.09 -16.19,-23.621 -33.91,-23.621 -21.87,0 -38.06,15.531 -38.06,45.269 0,29.321 16.19,44.852 38.06,44.852 17.72,0 29.75,-9.192 33.91,-23.629 l 21.43,0 c -6.12,25.16 -25.59,40.469 -55.34,40.469 -34.12,0 -58.4,-24.059 -58.4,-61.692 m 249.58,0 c 0,37.852 -26.47,61.692 -60.59,61.692 -33.91,0 -60.59,-23.84 -60.59,-61.692 0,-38.058 25.81,-62.117 59.71,-62.117 34.12,0 61.47,24.059 61.47,62.117 m -100.84,0 c 0,30.192 19.03,44.41 40.03,44.41 20.56,0 40.46,-14.218 40.46,-44.41 0,-30.398 -20.34,-44.617 -41.12,-44.617 -20.78,0 -39.37,14.219 -39.37,44.617 m 115.27,0.223 c 0,-37.184 24.72,-62.34 56.66,-62.34 22.09,0 37.62,11.379 44.84,24.277 l 0,-22.308 20.12,0 0,119.871 -20.12,0 0,-21.871 c -7,12.461 -22.31,23.84 -44.63,23.84 -32.15,0 -56.87,-24.059 -56.87,-61.469 m 101.5,-0.223 c 0,-28.211 -18.81,-44.617 -40.69,-44.617 -21.87,0 -40.46,16.629 -40.46,44.84 0,28.219 18.59,44.187 40.46,44.187 21.88,0 40.69,-16.629 40.69,-44.41 m 41.99,0 c 0,-38.058 24.28,-62.117 58.41,-62.117 29.74,0 49.21,16.629 55.34,40.469 l -21.44,0 c -4.37,-15.09 -16.19,-23.621 -33.9,-23.621 -21.88,0 -38.06,15.531 -38.06,45.269 0,29.321 16.18,44.852 38.06,44.852 17.71,0 29.74,-9.192 33.9,-23.629 l 21.44,0 c -6.13,25.16 -25.6,40.469 -55.34,40.469 -34.13,0 -58.41,-24.059 -58.41,-61.692 m 135.84,-60.148 19.9,0 0,66.281 c 0,25.809 14,38.5 34.34,38.5 20.13,0 33.47,-12.473 33.47,-36.973 l 0,-67.808 19.69,0 0,70.648 c 0,34.352 -21.22,51.41 -47.91,51.41 -16.84,0 -31.71,-6.777 -39.59,-19.468 l 0,59.281 -19.9,0 0,-161.871 z m 135.61,0 19.91,0 0,119.871 -19.91,0 0,-119.871 z m 10.28,139.34 c 7.22,0 13.13,5.898 13.13,13.558 0,7.653 -5.91,13.563 -13.13,13.563 -7.65,0 -13.56,-5.91 -13.56,-13.563 0,-7.66 5.91,-13.558 13.56,-13.558 m 126.87,-139.34 19.69,0 0,70.648 c 0,34.352 -21.22,51.41 -49,51.41 -16.19,0 -30.62,-6.777 -38.5,-19.25 l 0,17.063 -19.9,0 0,-119.871 19.9,0 0,66.281 c 0,25.809 14,38.5 34.34,38.5 20.13,0 33.47,-12.473 33.47,-36.973 l 0,-67.808 z m 40.47,60.371 c 0,-37.184 24.71,-62.34 56.87,-62.34 21.87,0 37.4,11.598 44.62,24.5 l 0,-25.152 c 0,-25.598 -15.97,-39.16 -37.19,-39.16 -19.68,0 -33.9,9.851 -38.27,24.281 l -19.69,0 c 3.94,-25.59 26.47,-41.563 57.96,-41.563 35.22,0 57.31,23.41 57.31,56.442 l 0,122.492 -20.12,0 0,-21.871 c -7,12.898 -22.75,23.84 -44.62,23.84 -32.16,0 -56.87,-24.059 -56.87,-61.469 m 101.49,-0.223 c 0,-28.211 -18.81,-44.617 -40.69,-44.617 -21.87,0 -40.46,16.629 -40.46,44.84 0,28.219 18.59,44.187 40.46,44.187 21.88,0 40.69,-16.629 40.69,-44.41"
         id="path3820"
         style="fill:#335410;fill-opacity:1;fill-rule:nonzero;stroke:none" /><path
         d="m 1071.97,722.27 38.97,0 0,140.5 130.01,0 0,-140.5 38.96,0 0,287 -38.96,0 0,-112.782 -130.01,0 0,112.782 -38.97,0 0,-287 z m 366.8,-6.743 c 45.71,0 84.3,31.84 99.29,62.942 l -31.1,16.109 c -9.74,-24.73 -37.09,-46.828 -67.44,-46.828 -48.71,0 -77.18,40.461 -77.18,83.918 l 181.71,0 c 0,71.57 -39.34,126.27 -106.78,126.27 -68.19,0 -111.65,-56.95 -111.65,-121.02 0,-64.438 43.46,-121.391 113.15,-121.391 m 67.44,144.621 -141.25,0 c 3.75,33.719 32.22,66.692 71.94,66.692 43.46,0 65.94,-32.973 69.31,-66.692 m 116.52,92.172 -37.09,0 0,-230.05 37.09,0 0,230.05 z m -43.84,47.207 c 0,-13.867 11.62,-25.476 25.48,-25.476 13.86,0 25.48,11.609 25.48,25.476 0,13.863 -11.62,25.473 -25.48,25.473 -13.86,0 -25.48,-11.61 -25.48,-25.473 m 273.13,-243.539 0,-33.718 36.35,0 0,287 -37.09,0 0,-87.301 c -25.48,28.469 -49.09,35.969 -77.94,35.969 -67.06,0 -109.03,-60.7 -109.03,-117.649 0,-64.07 40.09,-124.762 111.66,-124.762 34.09,0 64.81,20.231 76.05,40.461 m -75.68,168.981 c 51.33,0 78.31,-32.969 78.31,-90.301 0,-53.199 -29.98,-85.051 -74.56,-85.051 -52.46,0 -78.68,45.711 -78.68,91.051 0,43.832 28.85,84.301 74.93,84.301 m 203.44,84.301 -37.09,0 0,-287 37.09,0 0,287 z m 154.74,-293.743 c 45.71,0 84.3,31.84 99.29,62.942 l -31.1,16.109 c -9.74,-24.73 -37.09,-46.828 -67.44,-46.828 -48.71,0 -77.18,40.461 -77.18,83.918 l 181.71,0 c 0,71.57 -39.34,126.27 -106.78,126.27 -68.19,0 -111.65,-56.95 -111.65,-121.02 0,-64.438 43.46,-121.391 113.15,-121.391 m 67.44,144.621 -141.25,0 c 3.75,33.719 32.22,66.692 71.94,66.692 43.46,0 65.94,-32.973 69.31,-66.692 m 191.08,55.45 8.99,36.34 c -8.23,2.632 -17.23,4.5 -25.1,4.5 -25.1,0 -44.96,-10.868 -59.2,-36.719 l 0,32.601 -36.34,0 0,-230.05 37.09,0 0,121.39 c 0,25.86 7.49,76.809 49.09,76.809 11.23,0 25.47,-4.871 25.47,-4.871"
         id="path3822"
         style="fill:#335410;fill-opacity:1;fill-rule:nonzero;stroke:none" /><path
         d="m 1228.21,1107.1 53.2,0 -132.26,152.12 119.15,134.88 -47.21,0 -110.15,-128.14 0,128.14 -38.97,0 0,-287 38.97,0 0,140.88 117.27,-140.88 z m 113.15,230.05 -37.09,0 0,-230.05 37.09,0 0,230.05 z m -43.84,47.21 c 0,-13.87 11.61,-25.48 25.48,-25.48 13.86,0 25.47,11.61 25.47,25.48 0,13.86 -11.61,25.47 -25.47,25.47 -13.87,0 -25.48,-11.61 -25.48,-25.47 m 209.81,-83.93 8.99,36.34 c -8.24,2.63 -17.23,4.5 -25.1,4.5 -25.1,0 -44.96,-10.87 -59.2,-36.72 l 0,32.6 -36.34,0 0,-230.05 37.09,0 0,121.39 c 0,25.86 7.5,76.81 49.08,76.81 11.24,0 25.48,-4.87 25.48,-4.87 m 64.07,-81.3 c 7.87,-3.75 22.1,-10.49 36.72,-16.86 15.73,-6.75 25.85,-19.86 25.85,-35.6 0,-19.11 -14.24,-33.34 -40.84,-33.34 -25.48,0 -37.84,20.6 -41.96,29.97 l -31.1,-16.48 c 13.49,-29.23 40.46,-46.46 73.81,-46.46 40.46,0 76.81,25.85 76.81,70.43 0,28.85 -17.99,50.96 -45.71,63.7 -9,4.12 -14.24,6.74 -22.48,10.49 -18.36,8.24 -35.6,16.86 -35.6,37.09 0,16.49 13.49,28.85 31.1,28.85 22.48,0 31.47,-17.98 34.84,-26.6 l 30.35,13.49 c -10.49,27.72 -34.09,44.96 -64.44,44.96 -40.09,0 -68.57,-26.98 -68.57,-62.95 0,-21.35 9.37,-45.71 41.22,-60.69 m 214.68,85.42 0,32.6 -40.09,0 0,56.95 -37.09,0 0,-56.95 -26.97,0 0,-32.6 26.97,0 0,-197.45 37.09,0 0,197.45 40.09,0 z m 68.19,32.6 -37.09,0 0,-230.05 37.09,0 0,230.05 z m -43.84,47.21 c 0,-13.87 11.62,-25.48 25.48,-25.48 13.86,0 25.48,11.61 25.48,25.48 0,13.86 -11.62,25.47 -25.48,25.47 -13.86,0 -25.48,-11.61 -25.48,-25.47 m 137.13,-148.75 c 0,37.84 19.48,72.31 63.69,72.31 31.1,0 46.46,-16.86 46.46,-46.46 l 0,-154.36 37.1,0 0,164.48 c 0,43.09 -31.48,71.19 -79.43,71.19 -30.35,0 -52.46,-13.12 -68.94,-38.22 l 0,32.6 -35.97,0 0,-230.05 37.09,0 0,128.51"
         id="path3824"
         style="fill:#335410;fill-opacity:1;fill-rule:nonzero;stroke:none" /><path
         d="m 232.516,1253.7 140.632,140.64 -140.531,0.04 -0.101,-140.68"
         id="path3826"
         style="fill:#9fbb33;fill-opacity:1;fill-rule:nonzero;stroke:none" /><path
         d="m 232.516,722.004 142.402,0 -142.402,141.637 0,-141.637"
         id="path3828"
         style="fill:#4a9072;fill-opacity:1;fill-rule:nonzero;stroke:none" /><path
         d="m 232.516,988.355 268.562,-266.347 140.93,0 -409.492,407.872 0,-141.525"
         id="path3830"
         style="fill:#335410;fill-opacity:1;fill-rule:nonzero;stroke:none" /><path
         d="m 762.48,1394.38 -529.968,-530.735 0,-141.641 670.801,672.376 -140.833,0"
         id="path3832"
         style="fill:#9fbb33;fill-opacity:1;fill-rule:nonzero;stroke:none" /><path
         d="m 232.617,1253.7 531.758,-531.696 138.941,0 -670.699,672.376 0,-140.68"
         id="path3834"
         style="fill:#ba5983;fill-opacity:1;fill-rule:nonzero;stroke:none" /><path
         d="m 497.863,1394.34 -265.347,-264.47 0,-141.741 405.687,406.211 -140.34,0"
         id="path3836"
         style="fill:#4a9072;fill-opacity:1;fill-rule:nonzero;stroke:none" /></g></g></svg>