<?xml version="1.0" encoding="UTF-8" standalone="no"?>
<!-- Created with Inkscape (http://www.inkscape.org/) -->

<svg
   xmlns:dc="http://purl.org/dc/elements/1.1/"
   xmlns:cc="http://creativecommons.org/ns#"
   xmlns:rdf="http://www.w3.org/1999/02/22-rdf-syntax-ns#"
   xmlns:svg="http://www.w3.org/2000/svg"
   xmlns="http://www.w3.org/2000/svg"
   xmlns:sodipodi="http://sodipodi.sourceforge.net/DTD/sodipodi-0.dtd"
   xmlns:inkscape="http://www.inkscape.org/namespaces/inkscape"
   width="7135"
   height="7135"
   id="svg2"
   version="1.1"
   inkscape:version="0.48.5 r10040"
   sodipodi:docname="CTWLOGO-icon.svg"
   inkscape:export-filename="C:\Users\Menthol\Documents\GitHub\kirstinheidler.co.uk-data\images\CTWLOGO-icon.png"
   inkscape:export-xdpi="0.45837724"
   inkscape:export-ydpi="0.45837724">
  <defs
     id="defs4" />
  <sodipodi:namedview
     id="base"
     pagecolor="#ffffff"
     bordercolor="#666666"
     borderopacity="1.0"
     inkscape:pageopacity="0.0"
     inkscape:pageshadow="2"
     inkscape:zoom="0.093"
     inkscape:cx="3342.4769"
     inkscape:cy="3788.3366"
     inkscape:document-units="px"
     inkscape:current-layer="layer1"
     showgrid="false"
     inkscape:window-width="1536"
     inkscape:window-height="811"
     inkscape:window-x="-8"
     inkscape:window-y="-8"
     inkscape:window-maximized="1"
     fit-margin-top="0"
     fit-margin-left="0"
     fit-margin-right="0"
     fit-margin-bottom="0"
     inkscape:snap-page="true"
     inkscape:snap-object-midpoints="true" />
  <metadata
     id="metadata7">
    <rdf:RDF>
      <cc:Work
         rdf:about="">
        <dc:format>image/svg+xml</dc:format>
        <dc:type
           rdf:resource="http://purl.org/dc/dcmitype/StillImage" />
        <dc:title></dc:title>
      </cc:Work>
    </rdf:RDF>
  </metadata>
  <g
     inkscape:label="Layer 1"
     inkscape:groupmode="layer"
     id="layer1"
     transform="translate(6187.6163,3650.7535)">
    <path
       inkscape:connector-curvature="0"
       id="path3010"
       d="m 427.0075,2759.6186 c -3.2319,-1.6675 -15.1569,-5.7301 -26.5,-9.0282 -59.661,-17.3464 -126.8919,-41.9305 -198.6238,-72.63 -74.6089,-31.9308 -149.0144,-67.4341 -272,-129.7876 -210.6465,-106.7972 -290.2029,-145.3425 -377.5,-182.8997 -300.1721,-129.1408 -524.4695,-157.3307 -735.6773,-92.4604 -22.17,6.8093 -25.8482,8.2657 -57.8645,22.912 -60.2748,27.5734 -74.0849,33.0166 -135.9582,53.587 -310.6887,103.2914 -640.3126,164.1754 -979.5,180.9209 -62.206,3.0711 -84.3364,3.6395 -163.5,4.1994 -82.1129,0.5807 -134.5104,-0.2582 -200.5,-3.2101 -138.1161,-6.1782 -265.665,-18.5879 -402.4246,-39.1532 l -37.9245,-5.703 -15.0755,1.6937 c -270.578,30.3983 -540.799,23.5351 -803.0754,-20.3967 -308.4261,-51.6621 -601.2722,-152.6961 -874.5,-301.709 -282.0701,-153.8353 -538.0418,-361.0042 -744.0696,-602.2072 -181.0532,-211.9646 -323.183,-447.4259 -423.4414,-701.5 -92.947,-235.5455 -147.6597,-484.7025 -161.9486,-737.5 -2.9356,-51.9374 -3.8161,-96.0907 -3.2105,-161 0.6703,-71.8371 1.9947,-104.2727 6.7372,-165 22.0708,-282.6111 94.5885,-557.7768 215.9726,-819.5 12.0552,-25.9929 49.8113,-101.2325 63.981,-127.5 146.7931,-272.1218 344.619,-516.7514 584.9793,-723.3797 19.8326,-17.0492 23.8399,-21.1067 53,-53.6641 35.3535,-39.4722 86.5635,-92.2148 127.5,-131.3157 374.079,-357.3055 890.3395,-624.4605 1475.5,-763.5433 248.2039,-58.9939 509.255,-94.8932 767.5,-105.5453 19.8,-0.8168 47.25,-2.0625 61,-2.7684 33.5989,-1.725 212.0849,-1.7195 243,0.01 12.1,0.6759 34.15,1.6856 49,2.2437 74.9053,2.8153 163.4918,8.8949 240.4307,16.5005 24.5891,2.4306 46.0009,3.254 53.125,2.0429 5.27,-0.896 62.6616,-5.3165 97.9443,-7.544 82.0533,-5.1804 144.4926,-7.0354 236.5,-7.0259 72.9657,0.01 110.3729,0.782 170,3.52 263.8166,12.1143 524.7905,53.7202 753.5,120.1271 145.6562,42.2921 290.6375,96.9758 430.5,162.3752 47.0027,21.9783 130.2441,64.5185 176.5,90.1996 187.2845,103.9796 361.8369,226.9371 516.5,363.8308 84.8929,75.1395 168.7418,159.3102 240.8574,241.7817 99.4044,113.6791 184.714,230.5787 260.6424,357.1575 169.7003,282.9045 271.799,591.1176 300.4528,907 9.2073,101.5022 10.9786,208.386 5.0048,302 -11.3289,177.535 -48.8112,359.4976 -113.8088,552.5 -34.7623,103.2225 -63.6158,171.3574 -104.3864,246.5 -35.6983,65.7938 -63.6884,107.2902 -98.8295,146.5182 -22.3193,24.915 -30.2272,34.1974 -48.8039,57.2862 -163.6797,203.4361 -255.4564,445.449 -279.5609,737.1956 -4.5429,54.9845 -5.9987,87.5234 -6.7331,150.5 -1.5478,132.7169 7.8881,274.6908 30.2402,455 11.358,91.6226 23.9414,178.6075 52.4396,362.5 30.8235,198.8963 44.3615,293.1011 55.9296,389.1883 4.1656,34.6008 4.6018,39.8467 3.3058,39.7636 -0.4125,-0.026 -3.3943,-1.4124 -6.6262,-3.0798 z M -2943.0111,1060.1862 c 51.0132,-6.0068 93.1414,-25.6931 127.1454,-59.4145 4.5379,-4.5002 8.5387,-9.3298 8.8908,-10.7326 0.4701,-1.8731 -0.3751,-4.4418 -3.1823,-9.6716 -7.1258,-13.2751 -26.5727,-46.073 -27.7693,-46.8339 -2.538,-1.6137 -5.0516,-0.5836 -11.8899,4.8725 -18.8143,15.0117 -46.0244,29.9057 -67.2999,36.838 -21.7395,7.0835 -52.644,11.4101 -71,9.9399 -42.0366,-3.3668 -82.2314,-27.9301 -98.3551,-60.1055 -3.9757,-7.9336 -6.8381,-18.0388 -5.4913,-19.3856 0.5485,-0.5485 25.7133,-3.2461 55.9218,-5.9946 99.0037,-9.0079 167.4269,-16.2639 193.4246,-20.5119 21.7624,-3.5559 34.0204,-14.5676 37.1219,-33.3478 1.4357,-8.6938 -0.01,-28.6625 -3.2182,-44.5921 -8.454,-41.9165 -32.8992,-80.0921 -68.7716,-107.3994 -22.1571,-16.8668 -48.321,-28.2834 -76.4819,-33.373 -17.6784,-3.195 -53.6533,-3.189 -71.3705,0.012 -39.9253,7.2133 -70.7541,22.8816 -100.303,50.9778 -53.3326,50.7104 -74.4961,119.3806 -60.4069,196.0049 10.8685,59.1085 47.448,106.896 101.5907,132.7181 39.7387,18.9525 89.9916,26.0579 141.4447,19.9994 z m -148.1052,-223.5093 c -3.7779,-2.2271 -4.5,-4.1465 -4.5,-11.9616 0,-13.4385 5.5018,-29.8043 14.7048,-43.7408 2.0803,-3.1504 7.3853,-9.5118 11.7888,-14.1365 20.3993,-21.4239 41.7461,-31.6451 68.5064,-32.8019 19.3208,-0.8352 34.1991,2.9699 51.3764,13.1394 8.3462,4.9411 24.3907,19.862 29.5668,27.4961 8.1964,12.0887 13.0568,25.7536 13.0568,36.7092 0,4.8776 -0.2433,5.4401 -2.9604,6.8452 -1.6282,0.842 -5.8815,2.2084 -9.4517,3.0363 -15.0203,3.4835 -70.9945,10.8299 -106.5879,13.9894 -24.0191,2.1321 -62.867,2.9773 -65.5,1.4252 z m 591.5,223.605 c 11.0858,-2.4723 27.2503,-8.0543 37.816,-13.0586 14.8384,-7.0281 27.2922,-14.9283 47.6699,-30.24 10.4578,-7.8578 20.0324,-14.5509 21.2771,-14.8735 1.2446,-0.3227 2.875,-0.079 3.623,0.5421 1.7502,1.4525 4.0355,9.6673 7.038,25.2991 2.7941,14.5464 6.0511,23.354 9.6102,25.9882 2.3517,1.7405 3.3963,1.7982 14.5,0.8018 6.5812,-0.5906 17.1408,-1.7205 23.4658,-2.5108 6.325,-0.7903 17.8,-1.948 25.5,-2.5726 7.8131,-0.6337 15.2089,-1.7569 16.7355,-2.5415 4.988,-2.5637 5.337,5.8875 -5.3212,-128.8696 -4.6761,-59.1235 -5.019,-65.6763 -4.4999,-86 0.9497,-37.1824 5.3184,-81.4824 12.1986,-123.6962 3.0335,-18.6125 3.0251,-18.6632 -3.5334,-21.4287 -13.9563,-5.8849 -68.5939,-14.3109 -74.0082,-11.4133 -3.5961,1.9246 -6.6858,10.3499 -9.97,27.1874 -3.3084,16.9618 -4.6028,20.8508 -6.9399,20.8508 -0.8346,0 -7.6249,-5.9925 -15.0895,-13.3167 -41.8226,-41.036 -92.0095,-56.019 -156.247,-46.6466 -44.4608,6.4869 -80.3796,24.2392 -110.1973,54.4633 -15.346,15.5552 -26.2993,31.2651 -36.1602,51.8635 -23.6661,49.436 -26.7309,114.8353 -7.7621,165.6365 15.1256,40.5084 45.9703,77.8743 83.5743,101.2437 20.1119,12.4987 44.9883,21.1942 70.7203,24.72 10.6082,1.4535 47.2709,0.5185 56,-1.4283 z m -20.5,-80.5529 c -17.5437,-1.6011 -36.4073,-8.1344 -50.5953,-17.5233 -9.6186,-6.3651 -25.0719,-21.3601 -32.1639,-31.21 -25.8137,-35.8522 -29.8029,-83.8128 -10.2972,-123.801 14.2551,-29.2241 39.1519,-51.9203 67.3311,-61.3797 13.3977,-4.4975 19.9511,-5.4131 38.7253,-5.4104 16.1579,0 18.9774,0.2648 27.5506,2.5641 19.8716,5.3295 35.3016,14.1248 49.555,28.2469 17.9895,17.8237 29.6091,38.8412 34.2941,62.0309 8.8092,43.6039 -2.7456,83.3371 -33.2358,114.287 -18.5569,18.8367 -41.1751,29.6617 -67.2806,32.2003 -10.8752,1.0576 -12.2457,1.0573 -23.8833,0 z m 912.8571,81.9989 c 50.8188,-3.2419 89.2826,-16.4385 124.4456,-42.6965 9.9742,-7.4482 29.0866,-25.9958 29.8269,-28.9454 0.6439,-2.5652 -3.7127,-11.1898 -18.1039,-35.8395 -10.5704,-18.1055 -13.032,-21.5 -15.5913,-21.5 -1.08,0 -6.9347,3.8114 -13.0103,8.4699 -34.048,26.106 -71.3049,40.4704 -112.9952,43.5654 -21.6072,1.6041 -39.3847,-0.7073 -57.2969,-7.4494 -23.1707,-8.7214 -45.6176,-25.6465 -57.0735,-43.0336 -7.705,-11.6941 -13.4594,-27.2594 -10.7068,-28.9607 0.5897,-0.3644 25.5018,-2.8923 55.3602,-5.6176 98.9272,-9.0293 158.367,-15.2517 186.7881,-19.5535 18.0955,-2.739 24.8933,-5.2127 32.708,-11.9023 5.2349,-4.4812 9.9732,-13.8617 11.3762,-22.5215 1.9582,-12.086 -1.4442,-40.8921 -7.059,-59.7651 -16.4928,-55.437 -62.0524,-101.6923 -117.8475,-119.6468 -29.844,-9.6037 -66.7985,-11.2078 -102.1473,-4.4341 -48.3514,9.2653 -94.2924,41.3389 -124.2555,86.7484 -16.6002,25.158 -26.6577,51.2484 -31.4559,81.6009 -2.6064,16.4876 -2.361,49.4704 0.5058,68 6.4276,41.5434 21.8161,74.0902 48.1074,101.7471 38.8685,40.8876 86.5057,59.6356 159.0678,62.6027 1.925,0.079 10.6357,-0.3121 19.3571,-0.8684 z m -131.1071,-225.8853 c -3.2424,-2.0619 -3.25,-2.0862 -3.25,-10.4214 0,-15.2417 6.9374,-34.5331 17.3874,-48.3507 7.0701,-9.3484 23.3015,-24.1995 32.4643,-29.7037 9.3602,-5.6227 24.3148,-11.028 35.1483,-12.7042 9.3502,-1.4468 27.2744,-0.6372 36,1.6259 8.0005,2.0751 20.9428,7.9906 28.6915,13.114 7.8107,5.1643 20.562,17.4461 25.9533,24.9977 8.0856,11.3254 13.3086,25.8394 13.3404,37.0706 0.014,4.7844 -0.2345,5.3533 -2.9456,6.7552 -4.3736,2.2617 -13.6161,4.1963 -35.7413,7.4812 -45.7745,6.7962 -88.4259,10.9008 -121.2983,11.6734 -21.5113,0.5055 -22.6428,0.4379 -25.75,-1.538 z m -1918.7815,221.0273 17.9685,-0.6234 27.713,-144 c 15.2421,-79.2 31.2034,-162.1104 35.4696,-184.2453 7.3109,-37.9332 8.5736,-43.3948 9.7587,-42.2098 0.2678,0.2679 18.9607,82.8008 41.5397,183.4065 22.579,100.6056 41.4802,183.3468 42.0026,183.8692 1.2311,1.2311 111.7933,-0.629 113.0464,-1.9019 1.4737,-1.4969 115.0601,-540.7916 114.1033,-541.7484 -0.9013,-0.9013 -104.7507,0.6768 -105.6798,1.6059 -0.2848,0.2848 -14.6623,83.0023 -31.95,183.8166 -17.2877,100.8144 -31.8333,183.7 -32.3235,184.1902 -0.4902,0.4902 -1.1199,0.5146 -1.3993,0.054 -0.2794,-0.4604 -17.4422,-82.0621 -38.1394,-181.3371 -20.6972,-99.275 -38.0828,-181.5632 -38.6346,-182.8626 l -1.0034,-2.3625 -15.7201,0.6012 c -8.6461,0.3307 -34.2299,0.8846 -56.8528,1.231 -22.6229,0.3463 -41.6114,0.9257 -42.1968,1.2875 -0.5853,0.3617 -16.371,83.1663 -35.0793,184.0101 -18.7083,100.8439 -34.2573,183.5946 -34.5532,183.8906 -0.296,0.2959 -0.8275,0.2486 -1.1813,-0.1052 -0.3538,-0.3537 -15.4129,-82.4028 -33.4647,-182.3313 -18.0518,-99.9285 -33.271,-182.1377 -33.8204,-182.6871 -1.2273,-1.2273 -126.9378,0.7944 -128.2052,2.0618 -1.062,1.062 132.8922,536.4906 134.4726,537.5003 1.1707,0.7481 60.8528,0.044 94.1294,-1.1104 z m 1635.9732,-4.9587 18.9418,-0.6647 55.1476,-186 c 39.5063,-133.2454 54.8387,-186.2978 54.0583,-187.0501 -1.6173,-1.559 -95.691,0.2356 -97.2146,1.8545 -0.6189,0.6576 -13.1873,48.9999 -27.9298,107.4274 -14.7424,58.4275 -27.1549,106.7988 -27.5831,107.4917 -0.5094,0.8242 -1.0964,0.917 -1.6979,0.2681 -0.5056,-0.5454 -14.5063,-48.4666 -31.1128,-106.4916 -16.6064,-58.025 -30.724,-106.0275 -31.3724,-106.6722 -0.8977,-0.8927 -14.4108,-0.9282 -56.6788,-0.149 -30.525,0.5627 -55.8766,1.3768 -56.3369,1.8091 -0.8821,0.8283 124.9383,368.1192 126.4251,369.0561 1.0048,0.6333 47.8155,0.087 75.3535,-0.8793 z M -4662.1163,28.2284 c 32.1646,-4.8451 59.1467,-17.6152 95,-44.9618 16.5971,-12.6592 21.3706,-15.7837 23.1002,-15.12 2.3825,0.9142 4.2072,6.5231 7.4285,22.8345 3.6175,18.3172 5.3449,23.8675 8.6509,27.7964 2.274,2.7026 3.0531,2.969 8.6821,2.969 3.4011,0 15.8486,-1.1029 27.6611,-2.451 11.8125,-1.348 25.7522,-2.7374 30.9772,-3.0875 20.0441,-1.343 19.7456,-0.7525 17.0449,-33.7167 -1.0924,-13.3347 -4.293,-53.7198 -7.1124,-89.7448 -5.0376,-64.3683 -5.117,-66.027 -4.593,-96 0.6851,-39.191 4.7364,-80.5011 12.1606,-124 2.8602,-16.7577 2.8149,-16.8658 -8.5744,-20.4637 -13.95,-4.4068 -51.1265,-10.5363 -63.9043,-10.5363 -5.1116,0 -6.1379,0.3327 -7.8872,2.5566 -2.7942,3.5522 -4.564,9.5089 -8.108,27.2896 -3.0918,15.5117 -4.2564,19.1538 -6.1247,19.1538 -1.0481,0 -12.8037,-10.7338 -23.1227,-21.1128 -7.4443,-7.4876 -25.6101,-19.536 -38.8142,-25.7434 -25.7636,-12.1119 -50.9214,-16.964 -81.9646,-15.8081 -55.3391,2.0606 -98.4983,19.0667 -133.1401,52.4617 -18.5247,17.8579 -30.3208,33.9281 -40.8879,55.7026 -13.7716,28.3779 -19.972,57.6876 -19.972,94.4094 0,56.035 18.2119,101.4967 56.4616,140.9431 32.1501,33.156 69.5607,52.1829 112.0384,56.9821 12.8564,1.4525 34.1223,1.2858 45,-0.3527 z m -20.2651,-82.9179 c -9.6179,-1.8248 -20.2694,-5.1078 -28.1241,-8.6685 -15.2984,-6.935 -33.017,-21.6883 -44.9118,-37.3955 -7.4953,-9.8977 -16.5686,-28.8032 -19.9172,-41.5 -2.6074,-9.8863 -2.7659,-11.6982 -2.7124,-31 0.053,-18.9264 0.2599,-21.2533 2.7021,-30.3132 5.1524,-19.1133 13.8847,-35.3751 27.0999,-50.4671 18.3164,-20.9177 39.9355,-33.179 66.6286,-37.7888 13.4,-2.3141 37.1932,-1.548 48.9737,1.5769 19.6122,5.2023 35.461,14.438 50.1477,29.2229 23.8212,23.9805 35.863,53.6342 35.8746,88.3431 0.011,33.8494 -11.1991,61.2137 -35.2751,86.1059 -14.7614,15.2617 -30.9369,24.8691 -50.5151,30.0031 -8.0525,2.1116 -12.5164,2.606 -26.2058,2.9024 -11.2403,0.2434 -18.8159,-0.082 -23.7651,-1.0212 z m 3274.9259,82.0607 c 18.805,-3.4824 42.1957,-13.0015 61.8392,-25.1661 5.225,-3.2357 17.375,-11.7951 27,-19.0209 21.1773,-15.8985 21.5758,-16.1316 23.9297,-14.0013 2.2424,2.0293 3.2456,5.5045 7.0809,24.5273 3.2408,16.0745 5.8351,23.6817 9.0765,26.6151 1.6458,1.4895 3.3512,1.6418 12.6575,1.1306 5.9155,-0.325 18.1804,-1.5038 27.2554,-2.6196 9.075,-1.1159 21.8656,-2.4255 28.4235,-2.9104 11.2031,-0.8283 12.0641,-1.045 14.25,-3.5862 2.6659,-3.0993 2.8062,-5.394 1.3505,-22.0932 -0.5274,-6.05 -3.721,-46.325 -7.097,-89.5 -5.9372,-75.9307 -6.1193,-79.3182 -5.5627,-103.5 0.5966,-25.9227 2.2267,-47.8673 5.7197,-77 1.9899,-16.5961 7.4635,-53.8361 8.551,-58.1778 1.3637,-5.4436 -1.9276,-7.8224 -15.6819,-11.3342 -15.5969,-3.9822 -47.7078,-8.9828 -57.7031,-8.986 -9.927,0 -11.2274,2.2801 -16.6816,29.2885 -3.2062,15.8768 -4.5249,19.7095 -6.7813,19.7095 -0.5324,0 -7.3437,-6.2034 -15.1364,-13.7853 -16.0871,-15.6521 -27.9115,-24.0984 -45.6627,-32.6171 -14.2056,-6.8171 -26.7817,-10.9704 -41.8806,-13.8309 -15.6307,-2.9613 -49.4422,-3.1506 -67.6074,-0.3785 -58.5963,8.942 -103.9144,37.2225 -134.7849,84.1118 -28.543,43.354 -39.2406,102.7123 -28.5649,158.5 10.8993,56.9563 52.2157,111.4941 104.3473,137.739 18.1672,9.146 36.4392,14.7737 57.5025,17.7103 13.3572,1.8623 42.0069,1.4261 54.1608,-0.8246 z m -27.5055,-82.2215 c -16.1378,-2.9157 -33.8128,-10.6169 -46.7735,-20.3798 -9.4269,-7.101 -22.8147,-21.5396 -29.7914,-32.1299 -23.2823,-35.3408 -25.4211,-84.0038 -5.3665,-122.0979 8.8521,-16.8148 24.6977,-34.8956 39.2307,-44.7648 9.1477,-6.2121 23.5542,-12.7451 34.7681,-15.7665 9.0065,-2.4267 11.354,-2.6362 29.7773,-2.6575 18.6386,-0.021 20.6758,0.1605 29.9286,2.6728 30.5723,8.301 56.8219,30.4314 72.0225,60.7204 17.0383,33.9511 17.4731,76.1813 1.1277,109.5518 -17.2536,35.225 -47.1704,58.8001 -82.4598,64.9804 -10.4565,1.8313 -31.9757,1.7659 -42.4637,-0.129 z m -1563.6553,80.9698 c 45.6842,-5.7046 85.4014,-25.9689 118.5237,-60.4729 30.6821,-31.962 47.5035,-65.6915 54.0608,-108.4001 2.2834,-14.8719 2.2711,-45.0126 -0.024,-60 -6.8042,-44.424 -25.5333,-80.1531 -58.7067,-111.9937 -30.588,-29.3592 -65.9446,-47.1811 -107.4758,-54.1746 -15.4501,-2.6017 -57.1045,-2.6158 -72.8776,-0.025 -54.7677,8.9967 -99.5917,36.3906 -132.7743,81.1439 -24.5768,33.1467 -36.7061,71.0499 -36.7203,114.7479 -0.019,57.0772 18.5621,102.3396 58.2102,141.8002 47.2281,47.0049 106.8177,66.2355 177.7844,57.374 z m -51.4029,-80.9125 c -23.4652,-4.4368 -42.8712,-14.8077 -60.1134,-32.1257 -15.6235,-15.6922 -26.2083,-34.0615 -31.6383,-54.9064 -2.8714,-11.0228 -3.115,-13.257 -3.2088,-29.4284 -0.1091,-18.785 1.0564,-26.8583 5.9613,-41.2961 10.1485,-29.8724 34.0101,-56.0196 62.318,-68.2869 23.625,-10.238 55.492,-12.1604 80.6633,-4.866 18.77,5.4393 32.8129,13.8583 47.453,28.449 18.7766,18.7133 29.1343,38.7927 33.5103,64.9631 2.4556,14.6857 1.617,36.6963 -1.9184,50.3501 -5.7539,22.2217 -15.4626,38.9142 -32.8775,56.5272 -14.2995,14.4621 -30.2499,23.5442 -50.6728,28.8527 -12.3589,3.2125 -37.1502,4.098 -49.4767,1.7674 z m 2754.9029,82.5153 c 53.2746,-3.8305 95.0649,-22.4867 131,-58.4815 17.6533,-17.6826 30.1085,-34.7898 40.0396,-54.9943 29.5305,-60.0787 25.1802,-137.7177 -10.7994,-192.7355 -7.5582,-11.5576 -14.1818,-19.6158 -26.0216,-31.6573 -34.3066,-34.8916 -73.5171,-54.2504 -121.6924,-60.0815 -12.6844,-1.5354 -43.1364,-1.26 -56.656,0.5123 -46.4721,6.0919 -82.6811,23.4251 -115.7732,55.4204 -31.7726,30.7195 -50.2075,65.0789 -57.6995,107.5416 -3.0565,17.3232 -3.3158,49.2228 -0.5366,66 7.5871,45.8006 26.2325,81.0456 59.8084,113.0548 32.7318,31.2044 70.4186,48.9095 115.8307,54.4167 7.7013,0.9339 12.4067,1.2855 24.5,1.8306 2.2,0.099 10.3,-0.2726 18,-0.8263 z m -32.9153,-82.0824 c -40.7207,-5.9391 -77.8133,-37.8312 -91.7583,-78.8934 -4.2117,-12.4017 -5.8274,-23.3367 -5.8188,-39.381 0.01,-15.8353 0.871,-22.5256 4.5338,-35.1652 12.5897,-43.4443 50.469,-75.8932 94.9586,-81.3452 39.178,-4.8012 72.3346,6.4516 98.4002,33.3952 19.9386,20.6104 30.4414,43.5999 33.0947,72.4409 2.2249,24.184 -2.6302,48.8719 -13.5546,68.9239 -4.8408,8.8856 -15.9213,23.3799 -23.1012,30.2186 -16.6932,15.9 -36.3901,25.8045 -58.4226,29.3776 -10.0705,1.6332 -28.6482,1.8409 -38.3318,0.4286 z m -3424.5847,77.4894 c 38.8283,-4.9268 73.0579,-20.3098 97.9929,-44.0386 19.352,-18.416 29.7348,-37.9443 33.5176,-63.0407 5.6641,-37.5772 -5.2747,-71.1781 -30.9233,-94.9877 -9.4257,-8.7498 -21.4016,-16.1195 -54.0297,-33.2484 -29.4596,-15.4656 -33.8214,-18.1864 -41.1997,-25.6997 -6.6126,-6.7336 -8.7986,-12.2876 -8.1274,-20.6494 0.6213,-7.7394 3.2416,-13.0551 9.0951,-18.4507 9.634,-8.8803 16.0882,-10.854 51.6745,-15.8018 14.575,-2.0264 27.9625,-4.2873 29.75,-5.0241 2.8847,-1.1891 3.25,-1.7795 3.25,-5.2526 0,-6.958 -15.5494,-57.5193 -19.5819,-63.6737 -2.7092,-4.1348 -6.7136,-4.756 -22.6089,-3.5075 -37.0478,2.9099 -66.1688,12.0284 -90.766,28.4212 -34.7492,23.1587 -51.6993,56.5915 -49.7211,98.0709 1.1914,24.9807 8.4665,42.6756 24.5712,59.7634 9.167,9.7267 17.4751,14.8518 52.4915,32.3817 33.1237,16.5823 44.767,23.5413 51.3662,30.7005 10.3765,11.2572 12.5472,25.0135 6.2206,39.4205 -4.1136,9.3676 -16.3517,18.4797 -31.0697,23.1337 -14.7587,4.6668 -22.9818,5.5743 -48.8815,5.3943 -32.4507,-0.2255 -33.0427,0.046 -31.5552,14.4785 0.3814,3.7001 1.5287,12.5774 2.5496,19.7274 1.021,7.15 2.1571,17.5 2.5247,23 0.6664,9.9713 2.8298,17.3549 5.5972,19.1031 4.112,2.5977 36.6305,2.4739 57.8633,-0.2203 z m 1470.8468,-0.5806 c 6.5582,-2.001 6.4805,-0.8975 4.7343,-67.1857 -0.8564,-32.5141 -2.0481,-86.3415 -2.648,-119.6165 -1.2204,-67.684 -1.4371,-64.8506 5.7943,-75.7664 11.9415,-18.0256 55.7897,-43.2445 83.8708,-48.2375 10.3424,-1.839 32.7803,-0.8132 42.2404,1.9312 24.5314,7.1163 36.0928,21.2898 41.6603,51.0727 2.8619,15.3094 3.6619,45.0638 3.9756,147.8667 0.3016,98.8322 0.3583,101.4326 2.2677,104 1.0772,1.4483 3.0383,2.8024 4.3581,3.0092 1.3198,0.2067 12.0863,-0.1986 23.9254,-0.9007 16.6255,-0.986 26.1193,-1.0228 41.7041,-0.1619 23.7679,1.313 25.6539,0.9758 27.4148,-4.9015 1.252,-4.1788 0.4918,-25.2344 -2.7946,-77.4118 -1.2232,-19.4204 -1.6645,-43.3348 -1.7438,-94.5 -0.1045,-67.3907 -0.072,-68.5826 1.9907,-73.5998 6.6109,-16.0786 24.5218,-33.7353 48.7348,-48.0432 19.3018,-11.4057 32.9968,-14.9197 54.6683,-14.0273 37.4576,1.5425 54.0507,12.7293 61.9696,41.779 6.2885,23.0685 7.2771,45.2279 7.4233,166.3913 0.1042,86.2812 0.2377,93.2297 1.8487,96.1791 2.8224,5.1674 4.4872,5.3212 34.7584,3.2115 11.6391,-0.8112 20.4064,-0.7719 35.197,0.1578 21.6973,1.3639 24.3891,0.9846 26.9193,-3.793 1.8238,-3.4436 1.5691,-35.0672 -0.6705,-83.2554 -0.9082,-19.5396 -1.9943,-68.9944 -2.416,-110 -0.7,-68.0774 -0.9436,-75.6207 -2.8263,-87.5 -2.5458,-16.0641 -3.5938,-20.8488 -6.7898,-31 -6.0671,-19.2702 -16.6938,-35.285 -30.1134,-45.3819 -18.6051,-13.9985 -40.1404,-20.8685 -73.0214,-23.2949 -34.1213,-2.518 -61.4618,2.9915 -93.2789,18.7969 -24.7022,12.271 -45.9349,27.8437 -63.2195,46.367 -4.6256,4.9571 -8.8607,9.0129 -9.4113,9.0129 -0.5506,0 -1.9968,-2.4022 -3.2137,-5.3382 -3.7444,-9.034 -11.7996,-21.1175 -19.6174,-29.4279 -20.9709,-22.2922 -49.7793,-33.4066 -90.5381,-34.9299 -32.7857,-1.2254 -61.6418,5.7517 -90.8228,21.96 -18.3823,10.2102 -29.0654,17.7984 -49.8595,35.4151 -6.7003,5.6765 -12.8516,10.3209 -13.6696,10.3209 -2.0439,0 -3.9407,-6.2511 -8.1926,-27 -3.7259,-18.1822 -6.2178,-25.5878 -8.965,-26.642 -1.8026,-0.6918 -24.1522,3.4946 -38.066,7.1302 -8.849,2.3123 -35.5649,6.8255 -48.2538,8.1518 -3.4811,0.3638 -6.9686,1.3008 -7.75,2.0822 -2.2008,2.2007 -1.7155,7.8209 2.0218,23.4142 8.0043,33.3967 13.1293,67.4825 15.5416,103.3636 0.5916,8.8 1.6871,63.0629 2.4344,120.5843 1.1937,91.884 1.5518,104.9577 2.9491,107.6596 0.8747,1.6915 2.1623,3.3136 2.8614,3.6047 2.2936,0.9551 83.1503,-0.4885 86.6178,-1.5464 z m 1365.1532,-0.8166 c 34.0813,-3.1064 69.5255,-12.2789 76.2775,-19.7397 1.2167,-1.3445 2.0754,-7.3811 3.6563,-25.7054 2.6603,-30.8348 2.6643,-34.9424 0.036,-37.5709 -1.7187,-1.7187 -2.8319,-1.9351 -7.25,-1.4099 -9.1898,1.0924 -26.788,4.2561 -42.2196,7.5898 -13.0319,2.8153 -16.9681,3.2477 -30,3.2955 -16.9781,0.062 -22.7112,-1.1625 -30.9329,-6.6083 -8.3761,-5.5481 -13.0103,-13.7524 -16.0752,-28.4592 -2.2431,-10.7634 -3.416,-49.5391 -3.4295,-113.3775 -0.011,-51.3031 0.7421,-68.7418 3.187,-73.825 l 1.2867,-2.675 18.4819,0.029 c 10.1651,0.016 32.7789,0.6194 50.253,1.341 34.0536,1.4063 40.296,1.1138 43.6887,-2.047 2.1273,-1.9819 2.1603,-2.465 1.8531,-27.1703 -0.1721,-13.8339 0.085,-29.8977 0.5712,-35.6972 1.2965,-15.4649 4.5218,-14.2667 -36.2917,-13.4817 -18.4757,0.3554 -43.3637,0.7317 -55.3066,0.8363 l -21.7142,0.19 -2.7858,-2.7707 c -2.6092,-2.5952 -2.8071,-3.3925 -3.1242,-12.5836 -0.1862,-5.397 0.143,-18.3252 0.7314,-28.7292 0.5885,-10.4041 1.6075,-30.7138 2.2645,-45.1326 1.2776,-28.0412 1.0997,-29.77 -3.3619,-32.6704 -2.0441,-1.3289 -27.2223,-5.1341 -73.254,-11.0711 -15.6438,-2.0177 -15.23,-2.055 -18.9846,1.7076 -5.0088,5.0193 -6.0104,12.4134 -5.1745,38.1955 0.3755,11.58 1.0979,27.566 1.6054,35.5244 0.5074,7.9585 1.2184,23.2585 1.5798,34 0.653,19.409 0.6424,19.5515 -1.7087,22.976 -4.1846,6.0954 -7.444,7.2565 -23.2138,8.2691 -19.2867,1.2384 -20.3204,1.4556 -24.2489,5.0954 -3.1925,2.9579 -3.5225,3.8435 -4.5424,12.1896 -1.3603,11.1309 -0.5045,32.9245 1.6098,41 2.6774,10.2256 3.3275,10.5 24.8803,10.5 16.9361,0 18.5454,0.16 22.6363,2.25 2.9978,1.5316 5.061,3.5272 6.4619,6.25 2.0296,3.9451 2.066,5.517 2.6504,114.5 0.6053,112.8968 0.6219,113.3555 4.5405,125.5 4.6077,14.2804 15.6095,28.6984 27.7075,36.3107 10.3171,6.4919 23.6934,11.1565 37.6595,13.1328 4.125,0.5837 8.85,1.2521 10.5,1.4854 4.9731,0.7031 47.1848,-0.3209 59.5,-1.4433 z M -4222.4312,20.609 c 1.4775,-0.5785 3.1112,-2.2736 3.6325,-3.769 0.6076,-1.7431 0.1984,-46.4517 -1.1411,-124.6643 l -2.0885,-121.9467 2.4025,-4.9912 c 8.493,-17.6449 58.0538,-49.1512 85.8015,-54.545 9.0493,-1.759 31.4958,-0.697 41.708,1.9734 23.042,6.0253 35.116,18.2859 41.052,41.6863 1.2922,5.094 2.8109,13.9041 3.3748,19.5779 1.8822,18.9357 4.1444,126.7124 3.8547,183.6465 l -0.2815,55.3304 2.8058,2.4196 c 2.7528,2.374 3.1597,2.4196 21.5877,2.4196 10.3302,0 30.4251,-0.2996 44.6555,-0.6658 25.6188,-0.6592 25.8972,-0.6895 28.2914,-3.0837 l 2.4179,-2.4179 -0.681,-22.6663 c -0.3745,-12.4665 -1.3677,-42.6913 -2.207,-67.1663 -0.8394,-24.475 -1.6723,-71.275 -1.8509,-104 -0.1959,-35.8848 -0.7912,-64.0643 -1.5,-71 -2.5988,-25.4315 -8.2118,-48.4316 -15.2524,-62.5 -13.333,-26.6413 -37.9472,-42.8461 -75.42,-49.6527 -9.6883,-1.7598 -15.8558,-2.1629 -33.847,-2.2122 -19.2635,-0.053 -23.306,0.222 -32.5,2.2089 -28.9048,6.2466 -48.565,15.6207 -80.5735,38.4177 -12.6096,8.9808 -25.8155,18.4658 -29.3466,21.0777 -5.2378,3.8745 -6.6548,4.5107 -7.6951,3.4548 -1.7979,-1.8249 -7.036,-23.1734 -9.253,-37.7119 -1.1786,-7.7288 -2.4504,-12.8295 -3.4476,-13.8266 -1.44,-1.4401 -5.9004,-0.8538 -50.342,6.6171 -35.7745,6.0139 -49.2609,8.6486 -50.6347,9.8919 -2.3282,2.107 -2.1734,3.2679 3.0989,23.2353 10.7288,40.6319 16.5462,83.7387 17.8137,132 0.325,12.375 0.881,62.3907 1.2354,111.146 0.6138,84.4206 0.7329,88.7436 2.4989,90.6941 1.02,1.1265 2.82,2.1858 4,2.354 5.786,0.8249 85.4061,-0.3823 87.8307,-1.3316 z m 4325.549,-0.4502 c 1.2288,-0.7907 2.5385,-2.6503 2.9105,-4.1325 0.372,-1.4822 -0.2807,-57.1566 -1.4505,-123.7209 l -2.1269,-121.026 2.4364,-5.3218 c 6.0909,-13.3042 29.4747,-31.2072 59.6815,-45.693 6.2232,-2.9844 15.5359,-6.6311 20.6948,-8.1038 8.7788,-2.5061 10.317,-2.6452 24,-2.171 42.9449,1.4885 61.2859,17.5351 67.1579,58.7567 1.9094,13.4047 3.0609,62.7396 3.5709,153 0.3443,60.9392 0.8431,89.3826 1.6018,91.3341 0.606,1.5588 2.1859,3.2463 3.5108,3.75 2.8387,1.0793 28.704,1.1797 64.7811,0.2513 23.1908,-0.5967 26.0141,-0.8519 27.6622,-2.5 1.6403,-1.6403 1.8334,-3.669 1.8163,-19.0854 -0.01,-9.4875 -0.7094,-36.15 -1.5532,-59.25 -0.8438,-23.1 -1.9243,-74.625 -2.4011,-114.5 -0.9113,-76.1969 -1.3667,-84.0544 -6.1077,-105.3829 -11.0577,-49.745 -36.4488,-73.3393 -88.5279,-82.2631 -15.3107,-2.6235 -49.6406,-2.4301 -62.891,0.3543 -15.627,3.2837 -30.8141,8.6321 -46.0211,16.2071 -14.1919,7.0693 -17.9712,9.5533 -52.2992,34.3744 -11.8594,8.575 -19.6781,13.6118 -20.2468,13.0431 -1.5737,-1.5737 -7.7477,-27.2089 -9.4731,-39.3329 -0.9001,-6.325 -2.2518,-12.139 -3.0038,-12.9199 -1.1783,-1.2237 -7.8347,-0.3506 -48.1616,6.3167 -25.7369,4.2551 -48.2604,8.1926 -50.0521,8.75 -4.7219,1.4689 -5.7019,3.9432 -3.824,9.6553 6.1279,18.6399 14.9775,63.4629 18.0056,91.1979 3.4441,31.545 3.7878,42.8122 4.5002,147.5 0.4004,58.85 1.0987,107.8375 1.5517,108.8612 1.7404,3.9334 4.5515,4.1516 49.1302,3.8138 35.1886,-0.2666 43.2953,-0.5833 45.1281,-1.7627 z m -5189.9976,-2.8914 2.5617,-2.9791 -0.6756,-19.5209 c -0.3716,-10.7365 -1.5702,-34.3709 -2.6635,-52.5209 -5.0195,-83.3302 -5.1551,-144.7597 -0.3709,-168 5.0164,-24.368 22.4354,-37.3375 55.7849,-41.5352 9.5888,-1.2069 13.6759,-1.158 55.7735,0.6685 17.5667,0.7621 19.5259,0.3947 21.3652,-4.0073 2.9619,-7.0888 6.4437,-45.1759 6.4727,-70.8034 0.015,-13.4648 -0.024,-13.7085 -2.5251,-15.6759 -3.923,-3.0858 -11.1594,-4.1467 -28.2849,-4.1467 -25.4749,0 -42.4133,3.0635 -62.1745,11.245 -11.3514,4.6997 -15.188,6.8069 -38.0841,20.9179 -9.6713,5.9604 -18.5818,10.8371 -19.801,10.8371 -3.552,0 -4.67,-3.6081 -8.6171,-27.81 -1.806,-11.0737 -4.5501,-17.19 -7.7125,-17.19 -1.1957,0 -11.199,1.7814 -22.2296,3.9586 -11.0307,2.1772 -30.6188,5.2898 -43.5292,6.9169 -30.4689,3.84 -29.6032,3.0146 -23.5808,22.4847 7.9807,25.801 13.3665,54.3942 16.5077,87.6398 2.7707,29.3244 3.312,50.207 3.9094,150.8372 l 0.6372,107.3373 2.8511,2.4517 2.8511,2.4518 44.4863,-0.289 44.4863,-0.289 2.5617,-2.9791 z m 2467.5934,2.4045 c 3.0248,-0.84 4.15,-1.8298 5.3528,-4.7085 1.72,-4.1165 1.58,-9.4458 -1.7526,-66.7169 -3.1764,-54.5875 -4.1683,-89.0965 -3.6503,-127 0.4277,-31.2972 0.7574,-37.2059 2.5242,-45.2313 2.8236,-12.8261 6.0749,-19.3799 12.9524,-26.1092 7.0199,-6.8686 15.8199,-11.3744 28.9724,-14.8345 8.8123,-2.3183 11.7339,-2.583 29.7712,-2.6978 11,-0.07 28.55,0.2676 39,0.7501 l 19,0.8774 2.178,-2.3774 c 3.5592,-3.8848 6.598,-29.097 7.906,-65.5947 0.5989,-16.7108 0.4799,-19.5361 -0.9122,-21.6608 -2.904,-4.4321 -7.2525,-5.127 -31.6718,-5.0612 -19.2563,0.052 -23.9688,0.3771 -32.6884,2.2564 -21.8076,4.7 -36.2653,11.1527 -65.2513,29.123 -17.5052,10.8526 -19.6373,11.9209 -21.4242,10.7344 -2.7395,-1.819 -4.3244,-6.9556 -6.1749,-20.0137 -1.9903,-14.0448 -3.8661,-20.8122 -6.4058,-23.1106 -1.9251,-1.7422 -2.7123,-1.6625 -23.7732,2.408 -11.9802,2.3154 -32.0619,5.4905 -44.626,7.0557 -24.9938,3.1138 -26.6562,3.7041 -26.6562,9.466 0,1.7435 1.1417,6.5112 2.5372,10.595 4.8941,14.3228 10.8344,40.5557 13.9094,61.4252 5.3896,36.5787 6.5774,66.3621 7.3711,184.8373 l 0.6823,101.8372 2.8058,2.4128 2.8057,2.4127 41.6943,-0.01 c 26.3703,0 43.1018,-0.3964 45.5241,-1.069 z m -2895.815,-1.516 c 15.5125,-1.3718 21.3714,-1.4246 42.6169,-0.3834 36.7934,1.8031 35.4337,2.8016 34.4455,-25.2941 -1.0267,-29.1918 -3.4049,-80.169 -5.5858,-119.7319 -5.5809,-101.2428 -5.4849,-97.4895 -5.4883,-214.7 0,-74.2619 0.3356,-111.5388 1.0169,-112.2201 0.6934,-0.6934 25.1201,-0.6626 76.2799,0.096 l 75.2599,1.1163 2.4701,-2.3205 c 2.2096,-2.0759 2.4679,-3.1192 2.4499,-9.8962 -0.011,-4.1666 -0.5054,-10.5007 -1.0985,-14.0757 -0.5931,-3.575 -1.3716,-17.9277 -1.7299,-31.8948 l -0.6515,-25.3948 -2.5,-1.847 c -1.375,-1.0159 -4.075,-1.9116 -6,-1.9905 -1.925,-0.079 -22.625,1.4748 -46,3.4529 -121.8591,10.3118 -160.5071,11.3217 -276,7.2117 -22.275,-0.7927 -49.7832,-1.755 -61.1293,-2.1385 l -20.6292,-0.6972 -1.6819,2.5669 c -1.855,2.8311 -5.0404,19.0391 -6.0396,30.7313 -0.3526,4.125 -2.6646,15.9089 -5.1379,26.1864 -2.9652,12.3215 -4.3922,20.326 -4.1895,23.5 l 0.3074,4.8136 10.5,0.2961 c 15.3288,0.4323 90.1942,-3.6784 141,-7.7421 8.5757,-0.686 11.8059,-0.6191 12.7031,0.2631 1.8093,1.7789 6.3385,94.3614 8.4445,172.6183 1.2166,45.2063 1.1009,55.8504 -2.2246,204.5646 -0.578,25.85 -0.9097,56.6023 -0.737,68.3385 l 0.314,21.3384 2.8058,2.4116 c 2.4404,2.0975 3.8095,2.4115 10.5149,2.4115 4.24,0 15.8024,-0.7157 25.6942,-1.5906 z m 2102.0353,0.9251 c 19.3221,-0.6471 19.9394,-0.7332 22.3167,-3.1105 l 2.4449,-2.4449 -0.6617,-22.6396 c -0.364,-12.4517 -1.5363,-38.8395 -2.6052,-58.6395 -4.208,-77.9521 -7.2025,-205.4003 -4.8914,-208.185 1.0341,-1.2459 7.5312,-1.3509 46.2747,-0.7475 44.5084,0.6932 45.1031,0.6763 47.5718,-1.3516 2.8977,-2.3801 2.8618,-0.8395 1.0075,-43.2159 -1.3413,-30.6539 -1.4659,-31.6167 -4.3005,-33.2378 -1.6545,-0.9462 -13.9724,-1.3874 -49.207,-1.7622 l -47,-0.5 0.084,-20.5 c 0.097,-23.6266 1.5392,-39.4552 4.9856,-54.7075 5.2478,-23.2245 14.4228,-35.2389 31.9487,-41.8356 9.4591,-3.5604 12.8258,-4.1649 38.5527,-6.9219 24.5568,-2.6317 27.929,-3.5858 27.929,-7.9023 0,-2.0019 -8.3099,-38.8569 -13.5585,-60.1327 -2.7071,-10.9736 -2.5185,-10.8697 -18.4415,-10.1642 -42.8423,1.8983 -88.717,17.2708 -119.3749,40.0022 -38.1077,28.2551 -51.3851,67.3515 -47.8231,140.8186 0.8321,17.1612 0.8634,24.4321 0.1074,24.8994 -0.5873,0.363 -5.1947,0.9521 -10.2386,1.3092 -12.409,0.8785 -28.0194,3.2753 -34.5047,5.2979 -8.5759,2.6745 -8.4508,2.089 -6.6888,31.2868 0.8375,13.8776 1.5227,28.03 1.5227,31.4499 0,10.3567 -0.8081,10.0158 25.167,10.6177 19.0745,0.4421 22.8852,0.7894 26.1176,2.3804 2.0815,1.0245 4.257,2.7456 4.8345,3.8247 0.6836,1.2772 1.8839,49.6543 3.4393,138.6196 1.3142,75.1618 2.656,138.1706 2.9818,140.0195 0.3258,1.849 1.6671,4.4365 2.9806,5.75 2.3815,2.3816 2.4544,2.3883 25.7729,2.3883 12.8616,0 32.327,-0.2995 43.2565,-0.6655 z m 2786.0726,-2.3812 c 1.3581,-0.5163 2.6225,-2.1144 3.0884,-3.9032 0.9391,-3.6061 0.071,-39.0592 -2.3524,-96.0501 -2.3872,-56.1445 -2.3816,-127.0103 0.014,-175.5 1.0054,-20.35 1.8953,-49.2419 1.9776,-64.2041 0.1773,-32.2387 0.6177,-30.9099 -10.1437,-30.6073 -3.6887,0.1037 -13.8254,1.1162 -22.5259,2.25 -18.6101,2.4251 -27.2384,2.5316 -46.1808,0.5702 -7.7,-0.7973 -17.058,-1.4629 -20.7955,-1.4792 -5.9624,-0.026 -7.1063,0.2813 -9.3319,2.5069 -2.5001,2.5001 -2.5275,2.6972 -1.9107,13.75 1.3601,24.3739 2.8136,42.9501 6.5502,83.7135 6.7457,73.5907 6.5135,67.4016 6.2036,165.3386 -0.1863,58.8567 0.073,91.7688 0.7504,95.436 0.6044,3.2693 1.9704,6.6108 3.2843,8.0339 l 2.2496,2.4365 43.4117,-0.7087 c 23.8764,-0.3898 44.4464,-1.1022 45.7111,-1.583 z m -31.1228,-423.4236 c 14.4971,-3.8823 25.5417,-11.7677 30.3168,-21.6452 4.9137,-10.1638 6.3104,-24.034 3.6139,-35.8892 -7.3584,-32.3525 -53.5185,-48.1968 -87.8994,-30.1713 -21.8647,11.4634 -31.1809,31.2887 -26.0598,55.4564 3.7672,17.778 16.6657,29.3326 37.0285,33.1705 10.2117,1.9246 34.3002,1.4086 43,-0.9212 z m -3173.5,-599.4093 c 33.8914,-4.9979 58.3862,-12.6297 86.7182,-27.0189 26.4632,-13.4401 47.2297,-28.8357 70.8264,-52.5084 17.2669,-17.3224 20.6213,-22.4379 18.0164,-27.4751 -2.158,-4.1732 -15.0665,-20.2305 -32.5613,-40.5042 -17.9256,-20.773 -20.2028,-23.0015 -22.6955,-22.2104 -1.0359,0.3288 -7.2656,5.3416 -13.8438,11.1395 -31.3778,27.6558 -44.0653,36.7932 -65.9604,47.5035 -25.0205,12.2393 -46.0422,17.599 -73,18.6122 -62.6443,2.3545 -111.6931,-21.9328 -144.7165,-71.6586 -17.4079,-26.2124 -28.4644,-57.3352 -33.3939,-94 -2.0571,-15.3002 -2.3316,-52.8768 -0.4931,-67.5 8.5734,-68.1916 42.3804,-120.7514 93.6035,-145.5254 47.8155,-23.1259 109.5071,-22.851 156.7751,0.6988 15.6749,7.8095 30.3204,18.2874 50.244,35.9463 15.6253,13.8492 22.006,18.3803 25.8831,18.3803 3.4907,0 14.6171,-14.3573 31.386,-40.5 4.9391,-7.7 10.8313,-17.6 13.0939,-22 6.8659,-13.3523 5.8885,-16.768 -9.2596,-32.361 -25.115,-25.8525 -55.3367,-44.8017 -90.346,-56.6475 -52.2268,-17.6715 -122.2685,-19.818 -178.8417,-5.4806 -19.5895,4.9645 -31.3459,9.339 -50.9348,18.9522 -26.2461,12.8802 -45.0323,26.43 -66.5219,47.9799 -50.4223,50.5636 -77.7184,111.4572 -84.0739,187.557 -1.5791,18.9084 -0.5701,56.4659 2.0457,76.1467 8.892,66.9009 34.1575,121.047 77.5476,166.1911 44.2794,46.0693 99.0417,71.6735 167.0025,78.0824 16.2828,1.5355 57.7722,0.5196 73.5,-1.7998 z m 486.5568,-1.9888 c 43.5848,-7.4698 78.1061,-25.6619 109.6671,-57.7927 17.8733,-18.196 29.0055,-33.642 38.8026,-53.8389 19.4253,-40.0459 24.3671,-89.6617 13.4689,-135.228 -16.6631,-69.6701 -77.8481,-128.8131 -149.6122,-144.619 -17.9969,-3.9638 -28.9691,-5.0719 -49.8832,-5.0374 -36.286,0.06 -64.0702,6.1092 -93.5,20.358 -47.8271,23.156 -86.3247,66.6447 -102.4397,115.7203 -11.8656,36.1345 -12.9514,77.8029 -3.0265,116.1427 8.4662,32.7051 25.6226,61.9106 51.4312,87.5519 34.1361,33.9149 72.852,52.7236 120.535,58.5576 13.0695,1.599 50.8323,0.5376 64.5568,-1.8145 z m -52.5568,-79.1668 c -29.7492,-3.5347 -58.1834,-20.5228 -77.7822,-46.4713 -6.3608,-8.4215 -15.3759,-25.9401 -18.1326,-35.236 -6.8158,-22.9836 -6.8293,-51.4226 -0.035,-73.8036 9.5278,-31.386 36.6768,-61.1048 66.2338,-72.5031 16.3936,-6.3221 23.2188,-7.4354 45.2161,-7.3754 18.3322,0.05 20.8094,0.2727 29.7058,2.6708 11.4471,3.0855 24.1105,8.8212 34.105,15.4472 9.1969,6.0973 23.6787,20.6105 30.5104,30.5768 28.6542,41.8013 27.8699,99.3954 -1.904,139.8154 -12.0511,16.3601 -29.0616,30.562 -45.4347,37.9328 -17.8905,8.0539 -41.5197,11.4372 -62.4825,8.9464 z m 1819.2911,79.5873 c 34.7104,-5.8801 70.6783,-16.9522 81.2407,-25.0085 5.5684,-4.2473 5.9637,-6.6696 3.5496,-21.7526 -4.0179,-25.1038 -11.1883,-52.6757 -15.0079,-57.7084 l -1.8346,-2.4174 -16.8695,8.5581 c -19.1408,9.7104 -26.8811,12.7015 -40.3905,15.6078 -33.3954,7.1845 -67.3695,0.7243 -94.7125,-18.0099 -10.225,-7.0057 -26.5145,-23.3509 -33.0565,-33.1694 -13.7362,-20.616 -19.5563,-40.1542 -19.5563,-65.6518 0,-20.6275 3.1123,-34.4325 11.8552,-52.5856 7.7718,-16.1368 21.616,-32.8642 36.3917,-43.971 21.4226,-16.1032 44.2239,-23.4434 72.8234,-23.4434 18.9221,0 28.4251,2.1566 55.413,12.5752 12.1495,4.6903 22.8142,8.3883 23.6995,8.2178 0.8852,-0.1705 2.6328,-2.1062 3.8835,-4.3015 4.4045,-7.731 16.2013,-46.8558 17.8213,-59.1056 0.8191,-6.1933 -1.0712,-8.8366 -9.7999,-13.7034 -46.1813,-25.7489 -110.9611,-32.279 -165.9749,-16.7311 -44.3605,12.537 -85.4778,43.3934 -111.9981,84.0486 -28.0145,42.9458 -37.938,97.876 -27.235,150.7559 7.8824,38.944 27.4643,73.8773 57.6336,102.816 31.4853,30.201 67.1187,48.3316 107.8331,54.8665 13.9843,2.2446 14.047,2.2493 32.6705,2.4118 14.1091,0.1231 19.7469,-0.2867 31.6206,-2.2981 z m 324.2089,-2.5796 c 33.1433,-1.6569 58.1786,-5.3152 76.4721,-11.1747 11.2894,-3.6161 19.2109,-7.2375 21.596,-9.873 1.9947,-2.2042 4.0567,-21.0182 5.0927,-46.4668 0.7651,-18.7948 0.6286,-19.0381 -10.0934,-17.9887 -8.0974,0.7924 -20.6053,3.0553 -42.0674,7.6105 -19.8806,4.2196 -38.1516,4.6564 -49,1.1716 -16.3793,-5.2616 -24.2027,-16.2769 -27.5223,-38.7514 -0.5686,-3.85 -1.4522,-25 -1.9635,-47 -1.7576,-75.6293 -0.9662,-123.3873 2.2051,-133.0619 l 1.2908,-3.9381 21.495,0.034 c 11.8222,0.019 36.1199,0.4264 53.9949,0.9059 29.5003,0.7914 32.7986,0.7174 35.7355,-0.8022 1.7795,-0.9207 3.4841,-2.6784 3.7879,-3.9059 0.3038,-1.2275 0.1041,-10.7818 -0.4438,-21.2318 -0.8189,-15.6198 -0.7143,-21.6299 0.5878,-33.7824 1.5242,-14.2254 1.5138,-14.8599 -0.2761,-16.8378 -1.8494,-2.0435 -2.1778,-2.0512 -57.3757,-1.3358 l -55.5156,0.7196 -2.75,-2.7682 -2.75,-2.7681 0.022,-18.1137 c 0.012,-9.9625 0.6748,-28.9136 1.4726,-42.1136 0.7978,-13.2 1.4628,-30.433 1.4779,-38.2955 0.026,-13.7545 -0.063,-14.3858 -2.361,-16.6837 -1.3135,-1.3135 -3.901,-2.6494 -5.75,-2.9686 -10.9805,-1.8958 -77.5756,-10.5522 -81.1794,-10.5522 -6.9455,0 -9.9023,4.1574 -11.5908,16.2972 -1.0679,7.6781 -0.8326,16.6397 1.8833,71.7028 0.5561,11.275 1.2032,24.6619 1.4379,29.7486 0.5022,10.8807 -0.4046,14.9154 -4.1564,18.4946 -4.3298,4.1306 -7.7381,4.9703 -23.4368,5.7741 -15.8764,0.8128 -20.4954,2.1561 -24.0118,6.9827 -3.7156,5.1001 -4.2354,39.2705 -0.7918,52.0589 0.6304,2.3414 2.4538,5.5646 4.0518,7.1626 l 2.9055,2.9055 18.2634,-0.3135 c 17.6184,-0.3024 18.4079,-0.2307 22.3535,2.0308 2.2495,1.2893 4.9495,3.7643 6,5.5 1.8394,3.0392 1.9315,7.2152 2.4949,113.1557 0.6228,117.0926 0.5143,114.5216 5.4468,129 9.2112,27.0374 32.8325,44.1108 66.9682,48.4046 17.3067,2.177 21.7507,2.2801 46,1.0679 z m -1716.5166,-2.2585 c 1.3659,-0.6911 2.9188,-2.4945 3.4509,-4.0075 0.6324,-1.7982 0.3341,-41.2744 -0.8613,-113.9788 -1.0058,-61.1752 -1.8836,-116.1777 -1.9508,-122.2277 -0.116,-10.4385 0.029,-11.2736 2.8467,-16.3602 6.9401,-12.5299 26.9145,-27.8234 55.0311,-42.1347 20.958,-10.6675 33.9559,-13.6041 53.2224,-12.0243 21.8508,1.7917 35.2337,6.8153 45.4966,17.0782 9.9282,9.9282 15.7481,26.4219 17.6822,50.1115 1.7213,21.0832 3.3465,100.3727 3.4754,169.5508 0.1232,66.0943 0.1275,66.2253 2.2472,68.346 2.1057,2.1066 2.5008,2.1236 46.2987,1.9851 29.5672,-0.093 44.969,-0.5015 46.5764,-1.2339 3.8129,-1.7372 4.5274,-5.6586 3.9509,-21.6837 -2.4603,-68.3952 -3.7622,-120.7088 -4.4453,-178.6348 -0.826,-70.0356 -1.2041,-76.6782 -5.6072,-98.5 -2.3253,-11.5242 -8.5259,-28.8578 -13.4528,-37.6073 -5.9292,-10.5293 -18.7364,-23.4655 -29.4445,-29.7411 -20.4306,-11.9735 -45.6667,-17.6516 -78.4518,-17.6516 -19.4365,0 -34.3012,2.3248 -51.4789,8.0513 -23.9169,7.9731 -41.5082,18.3762 -83.0267,49.1001 -6.5766,4.8667 -12.5502,8.8486 -13.2748,8.8486 -0.7245,0 -1.7891,-1.2375 -2.3657,-2.75 -1.9787,-5.19 -6.7937,-26.2575 -7.8856,-34.5021 -0.6008,-4.5364 -1.5433,-9.9354 -2.0946,-11.9979 -0.8947,-3.3479 -1.3464,-3.7495 -4.212,-3.7455 -5.7327,0.01 -96.7519,15.7855 -98.2532,17.0314 -2.1587,1.7916 -1.8521,4.3425 2.5576,21.2768 7.9784,30.6393 13.3041,61.92 16.5465,97.1873 1.3415,14.5909 1.8077,38.2652 2.4615,125 0.4435,58.85 0.845,107.9518 0.8921,109.1151 0.047,1.1634 1.0183,3.3009 2.1582,4.75 l 2.0726,2.6349 43.6774,-0.015 c 33.0537,-0.011 44.2814,-0.3204 46.1608,-1.2713 z m 522.2521,-3.3525 c 1.5052,-0.7692 3.0365,-2.5971 3.4047,-4.0642 0.9225,-3.6756 -0.2424,-41.7997 -2.5757,-84.2973 -1.0721,-19.525 -2.4346,-49.675 -3.0278,-67 -1.422,-41.5272 -3.037,-137.1906 -2.3352,-138.3261 0.3163,-0.5116 20.3899,-0.7394 47.0071,-0.5334 l 46.4552,0.3595 2.0389,-2.5 c 1.8416,-2.2581 1.9818,-3.4194 1.4488,-12 -0.3246,-5.225 -1.1386,-20.9675 -1.8088,-34.9834 -1.1635,-24.3293 -1.3213,-25.5861 -3.4852,-27.75 l -2.2666,-2.2666 -46.423,0 c -40.5774,0 -46.5839,-0.1939 -47.7009,-1.5397 -0.9956,-1.1997 -1.128,-6.048 -0.5994,-21.9529 1.5228,-45.8196 7.8223,-72.0577 20.1321,-83.8525 10.7635,-10.3133 21.7522,-13.8294 53.9073,-17.2491 13.2512,-1.4093 25.218,-3.0928 26.593,-3.741 1.7222,-0.812 2.593,-2.127 2.7988,-4.2266 0.2924,-2.9827 -12.7702,-61.1784 -14.9876,-66.7723 -1.7254,-4.3523 -4.5332,-4.8819 -19.5328,-3.6842 -56.4234,4.5054 -109.2816,26.8969 -135.5585,57.4245 -23.9466,27.8203 -31.6104,63.2239 -28.4133,131.2581 l 0.8066,17.1644 -6.8066,0.6506 c -29.1086,2.7824 -43.1438,5.7931 -45.7432,9.8121 -1.1887,1.838 -1.2687,4.7255 -0.4768,17.2086 0.5234,8.25 1.3158,22.7753 1.761,32.2785 0.5278,11.2678 1.2338,17.7034 2.0294,18.5 0.8565,0.8576 7.9828,1.3754 23.9215,1.7382 18.6004,0.4234 23.2566,0.818 25.7743,2.1841 6.1954,3.3616 5.6258,-6.0982 8.0464,133.6369 1.2259,70.7643 2.3914,133.6123 2.5901,139.6623 0.3763,11.4568 1.3186,14.4101 5.2419,16.4274 3.28,1.6866 84.2457,0.2423 87.7843,-1.5659 z m 283.7645,0.6636 c 5.1615,-1.351 5.2814,-2.7067 4.055,-45.8518 -1.0128,-35.6283 -2.3394,-75.6782 -6.2333,-188.1733 -2.5349,-73.234 -1.4215,-185.9509 2.7704,-280.4827 l 1.5513,-34.9827 -2.1825,-1.7673 c -2.7005,-2.1868 -6.3191,-2.2113 -28.4609,-0.1934 -13.258,1.2082 -23.3012,1.3984 -45.6263,0.864 -35.4432,-0.8485 -32.8772,-2.044 -32.8663,15.3121 0.01,15.2241 2.2484,57.487 5.9995,113.25 6.8279,101.5036 7.3663,119.3445 9.0092,298.5 0.6832,74.4967 1.4473,118.1778 2.1034,120.2423 0.5668,1.7832 1.7843,3.6814 2.7055,4.218 1.835,1.069 82.8384,0.2 87.175,-0.9352 z m 239.1314,-1.1316 c 2.5947,-0.6479 3.9652,-1.7125 4.8004,-3.7288 1.1743,-2.835 0.6665,-26.5938 -1.9378,-90.6647 -3.487,-85.7895 -3.5416,-108.1707 -0.4239,-174 0.8075,-17.05 1.7546,-46.1175 2.1047,-64.5944 0.6343,-33.4806 0.6291,-33.6017 -1.5192,-35.75 -2.7217,-2.7217 -6.7621,-2.7552 -26.1556,-0.217 -24.0421,3.1467 -29.3526,3.3331 -46.7647,1.6415 -8.9456,-0.869 -20.0133,-1.5801 -24.595,-1.5801 -12.3513,0 -12.1163,-0.4627 -11.3032,22.2533 0.6404,17.8918 2.0771,36.1584 7.0978,90.2467 1.3785,14.85 3.0652,33.3 3.7482,41 0.8699,9.8065 1.2787,42.4557 1.3647,109 0.068,52.25 0.4567,96.8843 0.8648,99.1874 0.4081,2.3031 1.8163,5.3466 3.1293,6.7633 l 2.3873,2.5759 41.7854,-0.6132 c 22.982,-0.3373 43.4195,-1.0212 45.4168,-1.5199 z m -31.1314,-423.2983 c 24.3685,-5.2197 37,-20.8666 37,-45.8325 0,-13.9998 -3.9779,-23.7621 -13.5016,-33.1348 -10.4338,-10.2685 -23.6294,-15.5863 -40.4984,-16.3208 -20.8693,-0.9088 -35.5102,4.2805 -48.7338,17.2729 -13.1629,12.9329 -16.8981,27.612 -12.0664,47.42 4.3495,17.831 18.5661,28.8224 41.3002,31.9305 8.7783,1.2001 27.9352,0.4993 36.5,-1.3353 z"
       style="fill:#8456a5" />
    <path
       inkscape:connector-curvature="0"
       id="path3008"
       d="m 429.6854,2760.2953 c -4.4361,-3.1622 -13.7582,-6.7344 -27.3017,-10.4621 -53.217,-14.6474 -125.8452,-41.0795 -199.5,-72.6054 -82.6286,-35.3669 -157.3239,-71.5052 -353.5,-171.0265 -207.1437,-105.0852 -318.7555,-155.3846 -437.0396,-196.9581 -231.6262,-81.4098 -427.6965,-92.5108 -605.9604,-34.3076 -9.8135,3.2041 -27.5337,10.5281 -48.3012,19.9636 -60.6216,27.5427 -73.3616,32.6355 -124.1988,49.6488 -255.0324,85.3497 -518.2378,141.767 -791.5,169.6557 -97.3633,9.9367 -190.8071,15.8201 -296,18.6368 -48.9145,1.3097 -188.2662,0.679 -230.5,-1.0433 -130.552,-5.324 -231.4119,-13.4708 -348,-28.1092 -45.2167,-5.6773 -107.7115,-14.7897 -119.6974,-17.4532 -3.6836,-0.8186 -9.312,-1.4883 -12.5077,-1.4883 -11.9811,0 -118.7911,-19.8153 -188.7949,-35.0251 -309.2335,-67.1875 -605.8448,-174.1998 -871,-314.242 -333.8725,-176.3354 -619.5651,-403.1672 -838.8049,-665.9873 -221.6151,-265.6674 -370.7986,-561.0031 -441.1043,-873.2456 -23.8024,-105.7112 -38.9577,-220.0638 -43.5367,-328.5 -2.5088,-59.4123 -2.1705,-128.2807 0.867,-176.5 l 0.8189,-13 -6.9186,-13.5 c -13.6084,-26.5535 -32.6481,-61.3859 -45.8089,-93.5 -46.8425,-114.3017 -94.0353,-230.1995 -117.3866,-351.5 -31.5909,-164.10173 -58.3602,-335.96914 -29.0863,-500.5 62.3043,-350.175 179.5881,-682.5252 425.5315,-978.5 24.6876,-29.7097 49.5091,-51.7133 116.9289,-103.6545 175.8958,-135.5126 374.6046,-251.816 584,-341.8126 268.5791,-115.4333 558.7139,-188.4257 854.5,-214.9758 57.1238,-5.1275 122.0248,-9.0215 170.268,-10.2158 14.7026,-0.364 27.857,-1.0095 29.232,-1.4346 1.6004,-0.4947 0.5208,-0.6273 -3,-0.3685 -3.025,0.2224 -16.525,0.656 -30,0.9636 -67.3456,1.5373 -152.6537,7.6298 -232,16.5688 -470.7438,53.0337 -918.7732,223.6007 -1297,493.7743 -44.7884,31.9931 -91.6743,67.6738 -130.7328,99.489 -10.578,8.6163 -19.51,15.6661 -19.8489,15.6661 -0.8309,0 6.8545,-8.8401 26.4706,-30.4474 178.1657,-196.252 403.1298,-373.6807 659.6111,-520.2337 503.4298,-287.659 1114.6665,-451.6515 1753,-470.3233 20.35,-0.5952 42.85,-1.19 50,-1.3216 8.4668,-0.1559 4.8053,-0.3807 -10.5,-0.6446 l -23.5,-0.4053 28,-0.6765 c 36.153,-0.8734 135.1465,-0.8739 170.5,-9e-4 l 27.5,0.6791 -23.5,0.4054 c -16.2606,0.2806 -19.3412,0.4788 -10,0.6434 107.1169,1.8869 222.6076,8.514 330,18.936 31.3184,3.0394 43.5959,2.9048 89.5,-0.9808 95.6334,-8.0951 186.9648,-11.6332 300,-11.6217 123.8553,0.012 217.0514,4.1018 331.5,14.5457 177.8436,16.2289 358.482,47.0618 515.5,87.9898 267.609,69.7545 528.2429,179.1253 768,322.2787 233.6258,139.4926 446.298,311.0427 624.558,503.7942 131.0075,141.6576 242.017,292.4126 333.4841,452.8835 167.5923,294.0263 263.8461,616.5002 280.4271,939.5 0.5788,11.275 1.5552,28.6 2.1697,38.5 1.4811,23.8606 1.471,121.0979 -0.015,144 -0.6423,9.9 -1.8414,29.25 -2.6645,43 -7.8799,131.6307 -31.9622,271.6194 -71.4784,415.5 -19.4507,70.8208 -53.6116,174.7536 -77.2411,235.0023 -25.6944,65.5137 -61.7868,138.7978 -98.4988,199.9977 -17.8657,29.7825 -45.2655,68.3153 -59.7306,84 C 501.262,705.73 405.4838,875.9709 350.9247,1066.2654 c -62.0964,216.5839 -75.8197,464.2468 -43.469,784.4811 12.5796,124.5224 27.9783,237.2279 65.4751,479.2193 35.296,227.7888 46.9491,310.225 60.7889,430.0307 0.3759,3.2539 0.1362,3.2716 -4.0342,0.2988 z"
       style="fill:#7a4386"
       sodipodi:nodetypes="cssssssssssssssssssscsaaasssssccsssssssssscsscsssssssssssssssssssssscc" />
    <path
       inkscape:connector-curvature="0"
       id="path3006"
       d="m 431.7079,2761.6707 c -1.5815,-1.5815 -18.4339,-10.9108 -17.7707,-9.8376 1.0079,1.6307 -2.1049,0.9896 -17.7073,-3.6474 -91.6173,-27.2283 -185.1028,-64.5525 -309.3462,-123.5069 -34.7273,-16.4784 -137.4888,-67.7412 -237.5,-118.4775 -207.1437,-105.0852 -318.7555,-155.3846 -437.0396,-196.9581 -231.6262,-81.4098 -427.6965,-92.5108 -605.9604,-34.3076 -9.8135,3.2041 -27.5337,10.5281 -48.3012,19.9636 -60.6216,27.5427 -73.3616,32.6355 -124.1988,49.6488 -255.0324,85.3497 -518.2378,141.767 -791.5,169.6557 -97.3633,9.9367 -190.8071,15.8201 -296,18.6368 -48.9145,1.3097 -188.2662,0.679 -230.5,-1.0433 -130.552,-5.324 -231.4119,-13.4708 -348,-28.1092 -45.2167,-5.6773 -107.7115,-14.7897 -119.6974,-17.4532 -3.6836,-0.8186 -9.0836,-1.4894 -12,-1.4907 -8.8368,0 -76.9477,-12.026 -138.3026,-24.4114 -375.8521,-75.8713 -730.8924,-209.4879 -1043.9683,-392.8893 -92.1997,-54.0111 -177.5951,-110.2491 -261.7612,-172.3858 -241.2739,-178.1233 -446.4293,-389.6214 -599.2834,-617.8111 -200.7157,-299.6405 -315.2643,-626.5893 -337.9188,-964.5 -4.1358,-61.6898 -5.2825,-146.1146 -2.7367,-201.5 1.2847,-27.9517 1.6281,-31.5 3.0485,-31.5 0.4631,0 7.0452,11.1375 14.6269,24.75 47.6689,85.5863 106.5032,173.8404 170.8282,256.25 277.922,356.0578 688.1619,650.1998 1182.6648,847.9704 52.5579,21.0199 127.706,48.884 167,61.9219 9.3177,3.0916 9.8742,3.4605 29,19.2215 207.3188,170.8455 440.2994,313.1485 695.9175,425.062 301.6446,132.0645 631.4078,218.3348 968.0825,253.2629 78.8,8.175 148.067,12.9262 243.5,16.7022 31.6875,1.2538 202.4802,1.8935 202.1835,0.7573 -0.1009,-0.3866 8.5915,-7.1818 19.3165,-15.1005 90.4209,-66.7614 178.4639,-139.2055 241.0142,-198.3127 7.4523,-7.042 12.9263,-11.0187 25.0129,-18.171 106.1086,-62.7898 215.5479,-101.9597 323.4729,-115.7754 50.8252,-6.5063 112.4672,-7.2468 164.5,-1.976 178.316,18.0627 362.2348,100.8239 565,254.2431 75.1197,56.8382 157.8664,127.3528 248.9445,212.1442 60.7855,56.5897 111.1934,105.5792 232.483,225.9418 193.8017,192.3204 265.8068,260.1898 355.0725,334.6783 28.3503,23.6572 68.4182,55.43 69.9013,55.43 1.7677,0 7.4335,11.0467 -125.4021,-244.5 -134.5936,-258.9287 -192.636,-371.3422 -278.0438,-538.5 -65.3795,-127.9592 -175.9753,-350.3546 -235.2196,-473 -150.0179,-310.5611 -281.3749,-604.9418 -379.7287,-851 -13.7756,-34.4634 -67.208,-213.0336 -81.6231,-272.7835 -5.0598,-20.9726 -21.7804,-100.2585 -33.8048,-160.2957 -29.7248,-148.4151 -54.5258,-292.9133 -72.5024,-422.4208 -2.7484,-19.8 -6.815,-49.0885 -9.037,-65.0856 -2.2219,-15.9971 -4.0398,-31.8444 -4.0398,-35.2161 0,-3.3717 -0.6756,-7.6082 -1.5013,-9.4144 -0.8257,-1.8061 -3.5435,-15.6589 -6.0395,-30.7839 -16.3654,-99.1676 -37.4395,-194.1111 -62.594,-282 -61.949,-216.4475 -153.1572,-421.5776 -273.5265,-615.1695 -8.4363,-13.5683 -15.3387,-24.9308 -15.3387,-25.25 0,-0.3193 7.7625,-0.5812 17.25,-0.5821 14.4194,0 17.8243,-0.2884 20.75,-1.75 l 3.5,-1.7484 0.016,-25.5 c 0.01,-14.025 0.4127,-30.9613 0.897,-37.6362 0.8508,-11.7268 0.8103,-12.1737 -1.2015,-13.2504 -1.5133,-0.8099 -14.4584,-0.8707 -47.3969,-0.2225 -25.949,0.5106 -46.0227,0.5172 -46.971,0.015 -1.5295,-0.8092 -19.3728,-25.289 -21.9688,-30.1396 -1.202,-2.2459 -1.1459,-4.8212 1.2396,-56.9503 1.3564,-29.642 1.1993,-31.2541 -3.3351,-34.2252 -1.4865,-0.974 -15.2106,-3.2715 -38.4543,-6.4375 -19.8785,-2.7076 -36.631,-5.2246 -37.2277,-5.5934 -0.5966,-0.3688 -9.8154,-11.3332 -20.4862,-24.3654 -156.1882,-190.7535 -338.5649,-358.181 -545.6111,-500.8876 -163.4284,-112.6431 -349.1607,-211.7776 -535.5,-285.823 -265.3036,-105.4233 -540.4737,-168.7644 -829.5,-190.9416 -73.9184,-5.6718 -186.4242,-9.4198 -242,-8.0619 -15.7661,0.3853 -28.5667,0.2866 -30,-0.2313 -1.4564,-0.5261 -13.7708,-0.5815 -29.5,-0.1326 -498.5187,14.2277 -980.6515,158.1958 -1395.5,416.7058 -95.7265,59.6513 -188.548,125.7531 -271.7328,193.5116 -10.578,8.6163 -19.51,15.6661 -19.8489,15.6661 -0.8309,0 6.8545,-8.8401 26.4706,-30.4474 178.1657,-196.252 403.1298,-373.6807 659.6111,-520.2337 503.4298,-287.659 1114.6665,-451.6515 1753,-470.3233 20.35,-0.5952 42.85,-1.19 50,-1.3216 8.4668,-0.1559 4.8053,-0.3807 -10.5,-0.6446 l -23.5,-0.4053 28,-0.6765 c 36.153,-0.8734 135.1465,-0.8739 170.5,-9e-4 l 27.5,0.6791 -23.5,0.4054 c -16.2606,0.2806 -19.3412,0.4788 -10,0.6434 107.1169,1.8869 222.6076,8.514 330,18.936 31.3184,3.0394 43.5959,2.9048 89.5,-0.9808 95.6334,-8.0951 186.9648,-11.6332 300,-11.6217 123.8553,0.012 217.0514,4.1018 331.5,14.5457 177.8436,16.2289 358.482,47.0618 515.5,87.9898 267.609,69.7545 528.2429,179.1253 768,322.2787 233.6258,139.4926 446.298,311.0427 624.558,503.7942 131.0075,141.6576 242.017,292.4126 333.4841,452.8835 167.5923,294.0263 263.8461,616.5002 280.4271,939.5 0.5788,11.275 1.5552,28.6 2.1697,38.5 1.4811,23.8606 1.471,121.0979 -0.015,144 -0.6423,9.9 -1.8414,29.25 -2.6645,43 -7.8799,131.6307 -31.9622,271.6194 -71.4784,415.5 -19.4507,70.8208 -53.6116,174.7536 -77.2411,235.0023 -25.6944,65.5137 -61.7868,138.7978 -98.4988,199.9977 -17.8657,29.7825 -45.2655,68.3153 -59.7306,84 C 501.262,705.73 405.4838,875.9709 350.9247,1066.2654 c -62.0964,216.5839 -75.8197,464.2468 -43.469,784.4811 12.5796,124.5224 27.9783,237.2279 65.4751,479.2193 35.296,227.7888 46.9491,310.225 60.7889,430.0307 0.3378,2.9238 -0.2625,3.4234 -2.0117,1.6742 z M 178.3837,2592.3689 c 0,-0.2076 -0.7875,-0.9951 -1.75,-1.75 -1.5861,-1.2438 -1.6214,-1.2085 -0.3776,0.3776 1.3064,1.6657 2.1276,2.1955 2.1276,1.3724 z m -21,-16 c 0,-0.2076 -0.7875,-0.9951 -1.75,-1.75 -1.5861,-1.2438 -1.6214,-1.2085 -0.3776,0.3776 1.3064,1.6657 2.1276,2.1955 2.1276,1.3724 z m -13,-10 c 0,-0.2076 -0.7875,-0.9951 -1.75,-1.75 -1.5861,-1.2438 -1.6214,-1.2085 -0.3776,0.3776 1.3064,1.6657 2.1276,2.1955 2.1276,1.3724 z m -9,-7 c 0,-0.2076 -0.7875,-0.9951 -1.75,-1.75 -1.5861,-1.2438 -1.6214,-1.2085 -0.3776,0.3776 1.3064,1.6657 2.1276,2.1955 2.1276,1.3724 z m -5,-4 c 0,-0.2076 -0.7875,-0.9951 -1.75,-1.75 -1.5861,-1.2438 -1.6214,-1.2085 -0.3776,0.3776 1.3064,1.6657 2.1276,2.1955 2.1276,1.3724 z m -9,-7 c 0,-0.2076 -0.7875,-0.9951 -1.75,-1.75 -1.5861,-1.2438 -1.6214,-1.2085 -0.3776,0.3776 1.3064,1.6657 2.1276,2.1955 2.1276,1.3724 z m -9,-7 c 0,-0.2076 -0.7875,-0.9951 -1.75,-1.75 -1.5861,-1.2438 -1.6214,-1.2085 -0.3776,0.3776 1.3064,1.6657 2.1276,2.1955 2.1276,1.3724 z m -5,-4 c 0,-0.2076 -0.7875,-0.9951 -1.75,-1.75 -1.5861,-1.2438 -1.6214,-1.2085 -0.3776,0.3776 1.3064,1.6657 2.1276,2.1955 2.1276,1.3724 z m -5,-4 c 0,-0.2076 -0.7875,-0.9951 -1.75,-1.75 -1.5861,-1.2438 -1.6214,-1.2085 -0.3776,0.3776 1.3064,1.6657 2.1276,2.1955 2.1276,1.3724 z m -5,-4 c 0,-0.2076 -0.7875,-0.9951 -1.75,-1.75 -1.5861,-1.2438 -1.6214,-1.2085 -0.3776,0.3776 1.3064,1.6657 2.1276,2.1955 2.1276,1.3724 z m -9,-7 c 0,-0.2076 -0.7875,-0.9951 -1.75,-1.75 -1.5861,-1.2438 -1.6214,-1.2085 -0.3776,0.3776 1.3064,1.6657 2.1276,2.1955 2.1276,1.3724 z m -5,-4 c 0,-0.2076 -0.7875,-0.9951 -1.75,-1.75 -1.5861,-1.2438 -1.6214,-1.2085 -0.3776,0.3776 1.3064,1.6657 2.1276,2.1955 2.1276,1.3724 z m -5,-4 c 0,-0.2076 -0.7875,-0.9951 -1.75,-1.75 -1.5861,-1.2438 -1.6214,-1.2085 -0.3776,0.3776 1.3064,1.6657 2.1276,2.1955 2.1276,1.3724 z m -5,-4 c 0,-0.2076 -0.7875,-0.9951 -1.75,-1.75 -1.5861,-1.2438 -1.6214,-1.2085 -0.3776,0.3776 1.3064,1.6657 2.1276,2.1955 2.1276,1.3724 z m -5,-3.9674 c 0,-0.1898 -1.0125,-1.2023 -2.25,-2.25 l -2.25,-1.905 1.905,2.25 c 1.7902,2.1144 2.595,2.7052 2.595,1.905 z m -6,-5.0326 c 0,-0.2076 -0.7875,-0.9951 -1.75,-1.75 -1.5861,-1.2438 -1.6214,-1.2085 -0.3776,0.3776 1.3064,1.6657 2.1276,2.1955 2.1276,1.3724 z m -5,-4 c 0,-0.2076 -0.7875,-0.9951 -1.75,-1.75 -1.5861,-1.2438 -1.6214,-1.2085 -0.3776,0.3776 1.3064,1.6657 2.1276,2.1955 2.1276,1.3724 z m -5,-4 c 0,-0.2076 -0.7875,-0.9951 -1.75,-1.75 -1.5861,-1.2438 -1.6214,-1.2085 -0.3776,0.3776 1.3064,1.6657 2.1276,2.1955 2.1276,1.3724 z m -5,-4 c 0,-0.2076 -0.7875,-0.9951 -1.75,-1.75 -1.5861,-1.2438 -1.6214,-1.2085 -0.3776,0.3776 1.3064,1.6657 2.1276,2.1955 2.1276,1.3724 z m -5,-3.9674 c 0,-0.1898 -1.0125,-1.2023 -2.25,-2.25 l -2.25,-1.905 1.905,2.25 c 1.7902,2.1144 2.595,2.7052 2.595,1.905 z m -6,-5.0326 c 0,-0.2076 -0.7875,-0.9951 -1.75,-1.75 -1.5861,-1.2438 -1.6214,-1.2085 -0.3776,0.3776 1.3064,1.6657 2.1276,2.1955 2.1276,1.3724 z m -5,-4 c 0,-0.2076 -0.7875,-0.9951 -1.75,-1.75 -1.5861,-1.2438 -1.6214,-1.2085 -0.3776,0.3776 1.3064,1.6657 2.1276,2.1955 2.1276,1.3724 z m -5,-3.9674 c 0,-0.1898 -1.0125,-1.2023 -2.25,-2.25 l -2.25,-1.905 1.905,2.25 c 1.7902,2.1144 2.595,2.7052 2.595,1.905 z m -6,-5.0326 c 0,-0.2076 -0.7875,-0.9951 -1.75,-1.75 -1.5861,-1.2438 -1.6214,-1.2085 -0.3776,0.3776 1.3064,1.6657 2.1276,2.1955 2.1276,1.3724 z m -5,-4 c 0,-0.2076 -0.7875,-0.9951 -1.75,-1.75 -1.5861,-1.2438 -1.6214,-1.2085 -0.3776,0.3776 1.3064,1.6657 2.1276,2.1955 2.1276,1.3724 z m -5,-3.9674 c 0,-0.1898 -1.0125,-1.2023 -2.25,-2.25 l -2.25,-1.905 1.905,2.25 c 1.7902,2.1144 2.595,2.7052 2.595,1.905 z m -6,-5.0326 c 0,-0.2076 -0.7875,-0.9951 -1.75,-1.75 -1.5861,-1.2438 -1.6214,-1.2085 -0.3776,0.3776 1.3064,1.6657 2.1276,2.1955 2.1276,1.3724 z m -5,-3.9674 c 0,-0.1898 -1.0125,-1.2023 -2.25,-2.25 l -2.25,-1.905 1.905,2.25 c 1.7902,2.1144 2.595,2.7052 2.595,1.905 z m -6,-5.0326 c 0,-0.2076 -0.7875,-0.9951 -1.75,-1.75 -1.5861,-1.2438 -1.6214,-1.2085 -0.3776,0.3776 1.3064,1.6657 2.1276,2.1955 2.1276,1.3724 z m -5,-3.9674 c 0,-0.1898 -1.0125,-1.2023 -2.25,-2.25 l -2.25,-1.905 1.905,2.25 c 1.7902,2.1144 2.595,2.7052 2.595,1.905 z m -6,-5.0326 c 0,-0.2076 -0.7875,-0.9951 -1.75,-1.75 -1.5861,-1.2438 -1.6214,-1.2085 -0.3776,0.3776 1.3064,1.6657 2.1276,2.1955 2.1276,1.3724 z m -5,-3.9674 c 0,-0.1898 -1.0125,-1.2023 -2.25,-2.25 l -2.25,-1.905 1.905,2.25 c 1.7902,2.1144 2.595,2.7052 2.595,1.905 z m -6,-5.0326 c 0,-0.2076 -0.7875,-0.9951 -1.75,-1.75 -1.5861,-1.2438 -1.6214,-1.2085 -0.3776,0.3776 1.3064,1.6657 2.1276,2.1955 2.1276,1.3724 z m -5,-3.9674 c 0,-0.1898 -1.0125,-1.2023 -2.25,-2.25 l -2.25,-1.905 1.905,2.25 c 1.7902,2.1144 2.595,2.7052 2.595,1.905 z m -6,-5 c 0,-0.1898 -1.0125,-1.2023 -2.25,-2.25 l -2.25,-1.905 1.905,2.25 c 1.7902,2.1144 2.595,2.7052 2.595,1.905 z m -6,-5.0326 c 0,-0.2076 -0.7875,-0.9951 -1.75,-1.75 -1.5861,-1.2438 -1.6214,-1.2085 -0.3776,0.3776 1.3064,1.6657 2.1276,2.1955 2.1276,1.3724 z m -5,-3.9674 c 0,-0.1898 -1.0125,-1.2023 -2.25,-2.25 l -2.25,-1.905 1.905,2.25 c 1.7902,2.1144 2.595,2.7052 2.595,1.905 z m -6,-5.0326 c 0,-0.2076 -0.7875,-0.9951 -1.75,-1.75 -1.5861,-1.2438 -1.6214,-1.2085 -0.3776,0.3776 1.3064,1.6657 2.1276,2.1955 2.1276,1.3724 z m -5,-3.9674 c 0,-0.1898 -1.0125,-1.2023 -2.25,-2.25 l -2.25,-1.905 1.905,2.25 c 1.7902,2.1144 2.595,2.7052 2.595,1.905 z m -6,-5 c 0,-0.1898 -1.0125,-1.2023 -2.25,-2.25 l -2.25,-1.905 1.905,2.25 c 1.7902,2.1144 2.595,2.7052 2.595,1.905 z m -6,-5.0326 c 0,-0.2076 -0.7875,-0.9951 -1.75,-1.75 -1.5861,-1.2438 -1.6214,-1.2085 -0.3776,0.3776 1.3064,1.6657 2.1276,2.1955 2.1276,1.3724 z m -5,-3.9674 c 0,-0.1898 -1.0125,-1.2023 -2.25,-2.25 l -2.25,-1.905 1.905,2.25 c 1.7902,2.1144 2.595,2.7052 2.595,1.905 z m -6,-5.0326 c 0,-0.2076 -0.7875,-0.9951 -1.75,-1.75 -1.5861,-1.2438 -1.6214,-1.2085 -0.3776,0.3776 1.3064,1.6657 2.1276,2.1955 2.1276,1.3724 z m -5,-3.9674 c 0,-0.1898 -1.0125,-1.2023 -2.25,-2.25 l -2.25,-1.905 1.905,2.25 c 1.7902,2.1144 2.595,2.7052 2.595,1.905 z m -6,-5 c 0,-0.1898 -1.0125,-1.2023 -2.25,-2.25 l -2.25,-1.905 1.905,2.25 c 1.7902,2.1144 2.595,2.7052 2.595,1.905 z m -6,-5.0326 c 0,-0.2076 -0.7875,-0.9951 -1.75,-1.75 -1.5861,-1.2438 -1.6214,-1.2085 -0.3776,0.3776 1.3064,1.6657 2.1276,2.1955 2.1276,1.3724 z m -5,-3.9674 c 0,-0.1898 -1.0125,-1.2023 -2.25,-2.25 l -2.25,-1.905 1.905,2.25 c 1.7902,2.1144 2.595,2.7052 2.595,1.905 z m -6,-5.0326 c 0,-0.2076 -0.7875,-0.9951 -1.75,-1.75 -1.5861,-1.2438 -1.6214,-1.2085 -0.3776,0.3776 1.3064,1.6657 2.1276,2.1955 2.1276,1.3724 z m -5,-3.9674 c 0,-0.1898 -1.0125,-1.2023 -2.25,-2.25 l -2.25,-1.905 1.905,2.25 c 1.7902,2.1144 2.595,2.7052 2.595,1.905 z m -6,-5.0326 c 0,-0.2076 -0.7875,-0.9951 -1.75,-1.75 -1.5861,-1.2438 -1.6214,-1.2085 -0.3776,0.3776 1.3064,1.6657 2.1276,2.1955 2.1276,1.3724 z m -5,-3.9674 c 0,-0.1898 -1.0125,-1.2023 -2.25,-2.25 l -2.25,-1.905 1.905,2.25 c 1.7902,2.1144 2.595,2.7052 2.595,1.905 z m -6,-5.0326 c 0,-0.2076 -0.7875,-0.9951 -1.75,-1.75 -1.5861,-1.2438 -1.6214,-1.2085 -0.3776,0.3776 1.3064,1.6657 2.1276,2.1955 2.1276,1.3724 z m -5,-4 c 0,-0.2076 -0.7875,-0.9951 -1.75,-1.75 -1.5861,-1.2438 -1.6214,-1.2085 -0.3776,0.3776 1.3064,1.6657 2.1276,2.1955 2.1276,1.3724 z m -5,-3.9674 c 0,-0.1898 -1.0125,-1.2023 -2.25,-2.25 l -2.25,-1.905 1.905,2.25 c 1.7902,2.1144 2.595,2.7052 2.595,1.905 z m -6,-5.0326 c 0,-0.2076 -0.7875,-0.9951 -1.75,-1.75 -1.5861,-1.2438 -1.6214,-1.2085 -0.3776,0.3776 1.3064,1.6657 2.1276,2.1955 2.1276,1.3724 z m -5,-4 c 0,-0.2076 -0.7875,-0.9951 -1.75,-1.75 -1.5861,-1.2438 -1.6214,-1.2085 -0.3776,0.3776 1.3064,1.6657 2.1276,2.1955 2.1276,1.3724 z m -5,-3.9674 c 0,-0.1898 -1.0125,-1.2023 -2.25,-2.25 l -2.25,-1.905 1.905,2.25 c 1.7902,2.1144 2.595,2.7052 2.595,1.905 z m -6,-5.0326 c 0,-0.2076 -0.7875,-0.9951 -1.75,-1.75 -1.5861,-1.2438 -1.6214,-1.2085 -0.3776,0.3776 1.3064,1.6657 2.1276,2.1955 2.1276,1.3724 z m -5,-4 c 0,-0.2076 -0.7875,-0.9951 -1.75,-1.75 -1.5861,-1.2438 -1.6214,-1.2085 -0.3776,0.3776 1.3064,1.6657 2.1276,2.1955 2.1276,1.3724 z m -5,-4 c 0,-0.2076 -0.7875,-0.9951 -1.75,-1.75 -1.5861,-1.2438 -1.6214,-1.2085 -0.3776,0.3776 1.3064,1.6657 2.1276,2.1955 2.1276,1.3724 z m -5,-4 c 0,-0.2076 -0.7875,-0.9951 -1.75,-1.75 -1.5861,-1.2438 -1.6214,-1.2085 -0.3776,0.3776 1.3064,1.6657 2.1276,2.1955 2.1276,1.3724 z m -5,-4 c 0,-0.2076 -0.7875,-0.9951 -1.75,-1.75 -1.5861,-1.2438 -1.6214,-1.2085 -0.3776,0.3776 1.3064,1.6657 2.1276,2.1955 2.1276,1.3724 z m -5,-4 c 0,-0.2076 -0.7875,-0.9951 -1.75,-1.75 -1.5861,-1.2438 -1.6214,-1.2085 -0.3776,0.3776 1.3064,1.6657 2.1276,2.1955 2.1276,1.3724 z m -5,-4 c 0,-0.2076 -0.7875,-0.9951 -1.75,-1.75 -1.5861,-1.2438 -1.6214,-1.2085 -0.3776,0.3776 1.3064,1.6657 2.1276,2.1955 2.1276,1.3724 z m -5,-4 c 0,-0.2076 -0.7875,-0.9951 -1.75,-1.75 -1.5861,-1.2438 -1.6214,-1.2085 -0.3776,0.3776 1.3064,1.6657 2.1276,2.1955 2.1276,1.3724 z m -5,-4 c 0,-0.2076 -0.7875,-0.9951 -1.75,-1.75 -1.5861,-1.2438 -1.6214,-1.2085 -0.3776,0.3776 1.3064,1.6657 2.1276,2.1955 2.1276,1.3724 z m -5,-4 c 0,-0.2076 -0.7875,-0.9951 -1.75,-1.75 -1.5861,-1.2438 -1.6214,-1.2085 -0.3776,0.3776 1.3064,1.6657 2.1276,2.1955 2.1276,1.3724 z m -5,-4 c 0,-0.2076 -0.7875,-0.9951 -1.75,-1.75 -1.5861,-1.2438 -1.6214,-1.2085 -0.3776,0.3776 1.3064,1.6657 2.1276,2.1955 2.1276,1.3724 z m -5,-4 c 0,-0.2076 -0.7875,-0.9951 -1.75,-1.75 -1.5861,-1.2438 -1.6214,-1.2085 -0.3776,0.3776 1.3064,1.6657 2.1276,2.1955 2.1276,1.3724 z m -5,-4 c 0,-0.2076 -0.7875,-0.9951 -1.75,-1.75 -1.5861,-1.2438 -1.6214,-1.2085 -0.3776,0.3776 1.3064,1.6657 2.1276,2.1955 2.1276,1.3724 z m -9,-7 c 0,-0.2076 -0.7875,-0.9951 -1.75,-1.75 -1.5861,-1.2438 -1.6214,-1.2085 -0.3776,0.3776 1.3064,1.6657 2.1276,2.1955 2.1276,1.3724 z m -5,-4 c 0,-0.2076 -0.7875,-0.9951 -1.75,-1.75 -1.5861,-1.2438 -1.6214,-1.2085 -0.3776,0.3776 1.3064,1.6657 2.1276,2.1955 2.1276,1.3724 z m -9,-7 c 0,-0.2076 -0.7875,-0.9951 -1.75,-1.75 -1.5861,-1.2438 -1.6214,-1.2085 -0.3776,0.3776 1.3064,1.6657 2.1276,2.1955 2.1276,1.3724 z m -9,-7 c 0,-0.2076 -0.7875,-0.9951 -1.75,-1.75 -1.5861,-1.2438 -1.6214,-1.2085 -0.3776,0.3776 1.3064,1.6657 2.1276,2.1955 2.1276,1.3724 z m -9,-7 c 0,-0.2076 -0.7875,-0.9951 -1.75,-1.75 -1.5861,-1.2438 -1.6214,-1.2085 -0.3776,0.3776 1.3064,1.6657 2.1276,2.1955 2.1276,1.3724 z m -13,-10 c 0,-0.2076 -0.7875,-0.9951 -1.75,-1.75 -1.5861,-1.2438 -1.6214,-1.2085 -0.3776,0.3776 1.3064,1.6657 2.1276,2.1955 2.1276,1.3724 z m -17,-13 c 0,-0.2076 -0.7875,-0.9951 -1.75,-1.75 -1.5861,-1.2438 -1.6214,-1.2085 -0.3776,0.3776 1.3064,1.6657 2.1276,2.1955 2.1276,1.3724 z m -1552.2802,-225.3587 c -2.6291,-0.2066 -6.6791,-0.2042 -9,0.01 -2.3209,0.2097 -0.1698,0.3788 4.7802,0.3757 4.95,0 6.8489,-0.1746 4.2198,-0.3813 z m 29.0079,-0.9935 c -2.0748,-0.2165 -5.2248,-0.2128 -7,0.01 -1.7752,0.2209 -0.078,0.398 3.7723,0.3936 3.85,0 5.3025,-0.1852 3.2277,-0.4017 z m 22.5044,-0.9949 c -1.7974,-0.2226 -4.4974,-0.218 -6,0.01 -1.5027,0.2281 -0.032,0.4102 3.2679,0.4046 3.3,-0.01 4.5294,-0.1923 2.7321,-0.4148 z m 21.0316,-0.9792 c -1.2299,-0.2374 -3.4799,-0.2435 -5,-0.014 -1.52,0.2299 -0.5137,0.4241 2.2363,0.4316 2.75,0.01 3.9937,-0.1806 2.7637,-0.4179 z m 19,-1 c -1.2299,-0.2374 -3.4799,-0.2435 -5,-0.014 -1.52,0.2299 -0.5137,0.4241 2.2363,0.4316 2.75,0.01 3.9937,-0.1806 2.7637,-0.4179 z m 15.9863,-1.0018 c -1.2375,-0.2384 -3.2625,-0.2384 -4.5,0 -1.2375,0.2383 -0.225,0.4333 2.25,0.4333 2.475,0 3.4875,-0.195 2.25,-0.4333 z m 14.9883,-1.0016 c -1.2439,-0.2392 -3.0439,-0.2301 -4,0.02 -0.956,0.2503 0.062,0.446 2.2617,0.4349 2.2,-0.011 2.9823,-0.2159 1.7383,-0.4551 z m 15,-1 c -1.2439,-0.2392 -3.0439,-0.2301 -4,0.02 -0.956,0.2503 0.062,0.446 2.2617,0.4349 2.2,-0.011 2.9823,-0.2159 1.7383,-0.4551 z m 13.5117,-0.982 c -0.9625,-0.2516 -2.5375,-0.2516 -3.5,0 -0.9625,0.2515 -0.175,0.4573 1.75,0.4573 1.925,0 2.7125,-0.2058 1.75,-0.4573 z m 13,-1 c -0.9625,-0.2516 -2.5375,-0.2516 -3.5,0 -0.9625,0.2515 -0.175,0.4573 1.75,0.4573 1.925,0 2.7125,-0.2058 1.75,-0.4573 z m 12.4883,-1.018 c -1.2439,-0.2392 -3.0439,-0.2301 -4,0.02 -0.956,0.2503 0.062,0.446 2.2617,0.4349 2.2,-0.011 2.9823,-0.2159 1.7383,-0.4551 z m 11.4927,-0.9857 c -0.973,-0.2535 -2.323,-0.2369 -3,0.037 -0.6771,0.2739 0.119,0.4813 1.769,0.461 1.65,-0.02 2.2039,-0.2445 1.231,-0.4981 z m 12.019,-0.9963 c -0.9625,-0.2516 -2.5375,-0.2516 -3.5,0 -0.9625,0.2515 -0.175,0.4573 1.75,0.4573 1.925,0 2.7125,-0.2058 1.75,-0.4573 z m 11,-1 c -0.9625,-0.2516 -2.5375,-0.2516 -3.5,0 -0.9625,0.2515 -0.175,0.4573 1.75,0.4573 1.925,0 2.7125,-0.2058 1.75,-0.4573 z m 9.981,-1.0037 c -0.973,-0.2535 -2.323,-0.2369 -3,0.037 -0.6771,0.2739 0.119,0.4813 1.769,0.461 1.65,-0.02 2.2039,-0.2445 1.231,-0.4981 z m 10,-1 c -0.973,-0.2535 -2.323,-0.2369 -3,0.037 -0.6771,0.2739 0.119,0.4813 1.769,0.461 1.65,-0.02 2.2039,-0.2445 1.231,-0.4981 z m 10,-1 c -0.973,-0.2535 -2.323,-0.2369 -3,0.037 -0.6771,0.2739 0.119,0.4813 1.769,0.461 1.65,-0.02 2.2039,-0.2445 1.231,-0.4981 z m 10,-1 c -0.973,-0.2535 -2.323,-0.2369 -3,0.037 -0.6771,0.2739 0.119,0.4813 1.769,0.461 1.65,-0.02 2.2039,-0.2445 1.231,-0.4981 z m 9.519,-0.9693 c -0.6875,-0.2774 -1.8125,-0.2774 -2.5,0 -0.6875,0.2774 -0.125,0.5044 1.25,0.5044 1.375,0 1.9375,-0.227 1.25,-0.5044 z m 9,-1 c -0.6875,-0.2774 -1.8125,-0.2774 -2.5,0 -0.6875,0.2774 -0.125,0.5044 1.25,0.5044 1.375,0 1.9375,-0.227 1.25,-0.5044 z m 9,-1 c -0.6875,-0.2774 -1.8125,-0.2774 -2.5,0 -0.6875,0.2774 -0.125,0.5044 1.25,0.5044 1.375,0 1.9375,-0.227 1.25,-0.5044 z m 9,-1 c -0.6875,-0.2774 -1.8125,-0.2774 -2.5,0 -0.6875,0.2774 -0.125,0.5044 1.25,0.5044 1.375,0 1.9375,-0.227 1.25,-0.5044 z m 8.481,-1.0307 c -0.973,-0.2535 -2.323,-0.2369 -3,0.037 -0.6771,0.2739 0.119,0.4813 1.769,0.461 1.65,-0.02 2.2039,-0.2445 1.231,-0.4981 z m 8.519,-0.9693 c -0.6875,-0.2774 -1.8125,-0.2774 -2.5,0 -0.6875,0.2774 -0.125,0.5044 1.25,0.5044 1.375,0 1.9375,-0.227 1.25,-0.5044 z m 8,-1 c -0.6875,-0.2774 -1.8125,-0.2774 -2.5,0 -0.6875,0.2774 -0.125,0.5044 1.25,0.5044 1.375,0 1.9375,-0.227 1.25,-0.5044 z m 8,-1 c -0.6875,-0.2774 -1.8125,-0.2774 -2.5,0 -0.6875,0.2774 -0.125,0.5044 1.25,0.5044 1.375,0 1.9375,-0.227 1.25,-0.5044 z m 8,-1 c -0.6875,-0.2774 -1.8125,-0.2774 -2.5,0 -0.6875,0.2774 -0.125,0.5044 1.25,0.5044 1.375,0 1.9375,-0.227 1.25,-0.5044 z m 5.9375,-1.0208 c -0.7219,-0.2889 -1.5844,-0.2534 -1.9167,0.079 -0.3323,0.3323 0.2584,0.5687 1.3125,0.5253 1.165,-0.048 1.4019,-0.285 0.6042,-0.6042 z m 90,-21 c -0.7219,-0.2889 -1.5844,-0.2534 -1.9167,0.079 -0.3323,0.3323 0.2584,0.5687 1.3125,0.5253 1.165,-0.048 1.4019,-0.285 0.6042,-0.6042 z m 14,-3 c -0.7219,-0.2889 -1.5844,-0.2534 -1.9167,0.079 -0.3323,0.3323 0.2584,0.5687 1.3125,0.5253 1.165,-0.048 1.4019,-0.285 0.6042,-0.6042 z m 24,-5 c -0.7219,-0.2889 -1.5844,-0.2534 -1.9167,0.079 -0.3323,0.3323 0.2584,0.5687 1.3125,0.5253 1.165,-0.048 1.4019,-0.285 0.6042,-0.6042 z m 5,-1 c -0.7219,-0.2889 -1.5844,-0.2534 -1.9167,0.079 -0.3323,0.3323 0.2584,0.5687 1.3125,0.5253 1.165,-0.048 1.4019,-0.285 0.6042,-0.6042 z m 29,-6 c -0.7219,-0.2889 -1.5844,-0.2534 -1.9167,0.079 -0.3323,0.3323 0.2584,0.5687 1.3125,0.5253 1.165,-0.048 1.4019,-0.285 0.6042,-0.6042 z m 5,-1 c -0.7219,-0.2889 -1.5844,-0.2534 -1.9167,0.079 -0.3323,0.3323 0.2584,0.5687 1.3125,0.5253 1.165,-0.048 1.4019,-0.285 0.6042,-0.6042 z m 447,-23 c -0.7219,-0.2889 -1.5844,-0.2534 -1.9167,0.079 -0.3323,0.3323 0.2584,0.5687 1.3125,0.5253 1.165,-0.048 1.4019,-0.285 0.6042,-0.6042 z m -5,-1 c -0.7219,-0.2889 -1.5844,-0.2534 -1.9167,0.079 -0.3323,0.3323 0.2584,0.5687 1.3125,0.5253 1.165,-0.048 1.4019,-0.285 0.6042,-0.6042 z m -5,-1 c -0.7219,-0.2889 -1.5844,-0.2534 -1.9167,0.079 -0.3323,0.3323 0.2584,0.5687 1.3125,0.5253 1.165,-0.048 1.4019,-0.285 0.6042,-0.6042 z m -5,-1 c -0.7219,-0.2889 -1.5844,-0.2534 -1.9167,0.079 -0.3323,0.3323 0.2584,0.5687 1.3125,0.5253 1.165,-0.048 1.4019,-0.285 0.6042,-0.6042 z m -320,-1 c -0.7219,-0.2889 -1.5844,-0.2534 -1.9167,0.079 -0.3323,0.3323 0.2584,0.5687 1.3125,0.5253 1.165,-0.048 1.4019,-0.285 0.6042,-0.6042 z m 315,0 c -0.7219,-0.2889 -1.5844,-0.2534 -1.9167,0.079 -0.3323,0.3323 0.2584,0.5687 1.3125,0.5253 1.165,-0.048 1.4019,-0.285 0.6042,-0.6042 z m -310,-1 c -0.7219,-0.2889 -1.5844,-0.2534 -1.9167,0.079 -0.3323,0.3323 0.2584,0.5687 1.3125,0.5253 1.165,-0.048 1.4019,-0.285 0.6042,-0.6042 z m 304,0 c -0.7219,-0.2889 -1.5844,-0.2534 -1.9167,0.079 -0.3323,0.3323 0.2584,0.5687 1.3125,0.5253 1.165,-0.048 1.4019,-0.285 0.6042,-0.6042 z m -298,-1 c -0.7219,-0.2889 -1.5844,-0.2534 -1.9167,0.079 -0.3323,0.3323 0.2584,0.5687 1.3125,0.5253 1.165,-0.048 1.4019,-0.285 0.6042,-0.6042 z m 293,0 c -0.7219,-0.2889 -1.5844,-0.2534 -1.9167,0.079 -0.3323,0.3323 0.2584,0.5687 1.3125,0.5253 1.165,-0.048 1.4019,-0.285 0.6042,-0.6042 z m -287,-1 c -0.7219,-0.2889 -1.5844,-0.2534 -1.9167,0.079 -0.3323,0.3323 0.2584,0.5687 1.3125,0.5253 1.165,-0.048 1.4019,-0.285 0.6042,-0.6042 z m 281,0 c -0.7219,-0.2889 -1.5844,-0.2534 -1.9167,0.079 -0.3323,0.3323 0.2584,0.5687 1.3125,0.5253 1.165,-0.048 1.4019,-0.285 0.6042,-0.6042 z m -275,-1 c -0.7219,-0.2889 -1.5844,-0.2534 -1.9167,0.079 -0.3323,0.3323 0.2584,0.5687 1.3125,0.5253 1.165,-0.048 1.4019,-0.285 0.6042,-0.6042 z m 268,0 c -0.7219,-0.2889 -1.5844,-0.2534 -1.9167,0.079 -0.3323,0.3323 0.2584,0.5687 1.3125,0.5253 1.165,-0.048 1.4019,-0.285 0.6042,-0.6042 z m -261,-1 c -0.7219,-0.2889 -1.5844,-0.2534 -1.9167,0.079 -0.3323,0.3323 0.2584,0.5687 1.3125,0.5253 1.165,-0.048 1.4019,-0.285 0.6042,-0.6042 z m 255,0 c -0.7219,-0.2889 -1.5844,-0.2534 -1.9167,0.079 -0.3323,0.3323 0.2584,0.5687 1.3125,0.5253 1.165,-0.048 1.4019,-0.285 0.6042,-0.6042 z m -247.9375,-0.9792 c -0.6875,-0.2774 -1.8125,-0.2774 -2.5,0 -0.6875,0.2774 -0.125,0.5044 1.25,0.5044 1.375,0 1.9375,-0.227 1.25,-0.5044 z m 240.9375,-0.021 c -0.7219,-0.2889 -1.5844,-0.2534 -1.9167,0.079 -0.3323,0.3323 0.2584,0.5687 1.3125,0.5253 1.165,-0.048 1.4019,-0.285 0.6042,-0.6042 z m -234,-1 c -0.7219,-0.2889 -1.5844,-0.2534 -1.9167,0.079 -0.3323,0.3323 0.2584,0.5687 1.3125,0.5253 1.165,-0.048 1.4019,-0.285 0.6042,-0.6042 z m 227.0625,0.021 c -0.6875,-0.2774 -1.8125,-0.2774 -2.5,0 -0.6875,0.2774 -0.125,0.5044 1.25,0.5044 1.375,0 1.9375,-0.227 1.25,-0.5044 z m -219,-1 c -0.6875,-0.2774 -1.8125,-0.2774 -2.5,0 -0.6875,0.2774 -0.125,0.5044 1.25,0.5044 1.375,0 1.9375,-0.227 1.25,-0.5044 z m 211,0 c -0.6875,-0.2774 -1.8125,-0.2774 -2.5,0 -0.6875,0.2774 -0.125,0.5044 1.25,0.5044 1.375,0 1.9375,-0.227 1.25,-0.5044 z m -203,-1 c -0.6875,-0.2774 -1.8125,-0.2774 -2.5,0 -0.6875,0.2774 -0.125,0.5044 1.25,0.5044 1.375,0 1.9375,-0.227 1.25,-0.5044 z m 195,0 c -0.6875,-0.2774 -1.8125,-0.2774 -2.5,0 -0.6875,0.2774 -0.125,0.5044 1.25,0.5044 1.375,0 1.9375,-0.227 1.25,-0.5044 z m -185.519,-1.0307 c -0.973,-0.2535 -2.323,-0.2369 -3,0.037 -0.6771,0.2739 0.119,0.4813 1.769,0.461 1.65,-0.02 2.2039,-0.2445 1.231,-0.4981 z m 177,0 c -0.973,-0.2535 -2.323,-0.2369 -3,0.037 -0.6771,0.2739 0.119,0.4813 1.769,0.461 1.65,-0.02 2.2039,-0.2445 1.231,-0.4981 z m -167,-1 c -0.973,-0.2535 -2.323,-0.2369 -3,0.037 -0.6771,0.2739 0.119,0.4813 1.769,0.461 1.65,-0.02 2.2039,-0.2445 1.231,-0.4981 z m 157.019,0 c -0.9625,-0.2516 -2.5375,-0.2516 -3.5,0 -0.9625,0.2515 -0.175,0.4573 1.75,0.4573 1.925,0 2.7125,-0.2058 1.75,-0.4573 z m -145,-1 c -0.9625,-0.2516 -2.5375,-0.2516 -3.5,0 -0.9625,0.2515 -0.175,0.4573 1.75,0.4573 1.925,0 2.7125,-0.2058 1.75,-0.4573 z m 134,0 c -0.9625,-0.2516 -2.5375,-0.2516 -3.5,0 -0.9625,0.2515 -0.175,0.4573 1.75,0.4573 1.925,0 2.7125,-0.2058 1.75,-0.4573 z m -119.5,-1.0164 c -1.2375,-0.2384 -3.2625,-0.2384 -4.5,0 -1.2375,0.2383 -0.225,0.4333 2.25,0.4333 2.475,0 3.4875,-0.195 2.25,-0.4333 z m 106,0 c -1.2375,-0.2384 -3.2625,-0.2384 -4.5,0 -1.2375,0.2383 -0.225,0.4333 2.25,0.4333 2.475,0 3.4875,-0.195 2.25,-0.4333 z m -86,-1.0177 c -1.7875,-0.2218 -4.7125,-0.2218 -6.5,0 -1.7875,0.2218 -0.325,0.4033 3.25,0.4033 3.575,0 5.0375,-0.1815 3.25,-0.4033 z m 68,0 c -1.7875,-0.2218 -4.7125,-0.2218 -6.5,0 -1.7875,0.2218 -0.325,0.4033 3.25,0.4033 3.575,0 5.0375,-0.1815 3.25,-0.4033 z m -36.519,-0.9696 c -0.973,-0.2535 -2.323,-0.2369 -3,0.037 -0.6771,0.2739 0.119,0.4813 1.769,0.461 1.65,-0.02 2.2039,-0.2445 1.231,-0.4981 z M -273.6302,26.2837 c 48.5427,-8.3191 87.836,-30.2702 120.0563,-67.0692 12.1475,-13.8738 19.9865,-25.1902 27.414,-39.5748 11.3364,-21.9547 17.7927,-42.1498 20.6361,-64.549 1.7841,-14.0548 1.4997,-45.3546 -0.5348,-58.8479 -4.0931,-27.1465 -12.538,-50.0329 -27.0854,-73.4035 -7.2518,-11.6501 -14.4879,-20.5461 -27.2403,-33.4886 -39.333,-39.9198 -83.5685,-59.3236 -139.732,-61.2931 -52.9785,-1.8578 -97.7794,11.3442 -136,40.0767 -10.4793,7.8778 -29.9485,26.9096 -38.473,37.6085 -16.4022,20.5861 -28.4727,44.5053 -34.9343,69.2265 -5.0711,19.4015 -5.5927,24.3233 -5.5927,52.7735 0,27.8169 0.4905,32.7042 5.1691,51.5 16.9507,68.099 75.4038,125.8918 144.9448,143.3074 6.5373,1.6372 15.9361,3.4789 20.8861,4.0928 4.95,0.6139 10.35,1.2993 12,1.5231 7.4859,1.0154 49.46,-0.3356 58.4861,-1.8824 z m -47.7659,-80.5906 c -39.1427,-3.8908 -73.6047,-28.4307 -92.0757,-65.5658 -8.2451,-16.5764 -11.6167,-32.1053 -11.5907,-53.3845 0.033,-27.1079 7.4494,-49.8943 22.9983,-70.6612 22.3582,-29.8614 53.7438,-45.2978 92.1624,-45.3283 32.3693,-0.026 56.9246,9.8677 79.3973,31.9895 17.205,16.9363 27.3503,34.7213 32.6285,57.1988 2.2941,9.7694 2.6589,13.5376 2.6919,27.8012 0.029,12.4373 -0.4173,18.5929 -1.8114,25 -7.713,35.4471 -31.4491,66.6743 -62.2308,81.871 -18.2457,9.0077 -41.4352,13.1403 -62.1698,11.0793 z M 100.778,21.8745 c 1.5919,-0.3474 3.721,-1.7567 4.7314,-3.1317 1.7834,-2.4269 1.7746,-6.0826 -0.3002,-125 l -2.1372,-122.5 2.3432,-5 c 7.9078,-16.8736 51.7841,-45.8369 81.9685,-54.1084 8.4468,-2.3147 26.2848,-2.3078 38.3751,0.015 31.4637,6.0444 44.3994,20.6683 49.618,56.0936 1.8689,12.6864 3.1984,66.7059 3.8574,156.7232 l 0.6495,88.7232 2.2758,2.2768 c 2.0118,2.0128 3.4614,2.3185 12.5,2.6366 5.6233,0.1979 26.161,0.031 45.6394,-0.3697 44.2562,-0.9117 40.0901,1.3439 40.0721,-21.6946 -0.01,-8.9625 -0.7119,-35.8705 -1.5664,-59.7955 -0.8544,-23.925 -1.9325,-75.9 -2.3956,-115.5 -0.6753,-57.7373 -1.1654,-74.2781 -2.4745,-83.5 -4.8504,-34.1689 -12.1931,-54.4859 -25.5341,-70.6521 -15.2514,-18.4812 -41.0599,-30.6238 -73.0179,-34.3541 -14.0585,-1.641 -50.8838,-0.8006 -60.4988,1.3808 -13.9155,3.1569 -29.8108,8.9722 -43.7665,16.0118 -13.8389,6.9808 -22.1921,12.5022 -55.0286,36.3739 -8.6873,6.3155 -16.0451,11.2328 -16.3506,10.9274 -1.2689,-1.2689 -6.5244,-23.28 -8.7324,-36.5731 -1.4225,-8.5644 -2.975,-14.8963 -3.8723,-15.7936 -1.3305,-1.3304 -6.9576,-0.5901 -50.3505,6.6242 -30.0649,4.9984 -49.763,8.7185 -51.2198,9.673 -3.0373,1.9901 -2.7504,5.0829 2.1775,23.4729 9.0348,33.7157 15.0242,72.7307 17.6404,114.9089 0.5629,9.075 1.3182,61.9324 1.6785,117.4609 l 0.6552,100.9609 2.2891,2.2891 2.2891,2.2891 42.7954,-0.1183 c 23.5375,-0.065 44.0979,-0.4026 45.6898,-0.75 z m -738.5391,-3.7683 c 16.5902,-0.8384 15.5964,1.0991 14.7512,-28.7578 -0.3753,-13.2581 -1.3368,-40.9806 -2.1367,-61.6056 -3.6042,-92.9388 -3.6776,-123.9662 -0.4332,-183 0.5592,-10.175 1.2984,-35.7137 1.6427,-56.7526 0.7365,-45.0037 1.3705,-42.2474 -9.7178,-42.2474 -3.7008,0 -13.6435,0.9271 -22.095,2.0603 -17.2739,2.3161 -30.6829,2.5821 -46.1589,0.9159 -5.7867,-0.6231 -14.7856,-1.2101 -19.9974,-1.3045 -13.0991,-0.2373 -13.7131,0.3556 -13.7014,13.2333 0.012,12.8494 2.3711,45.8011 5.9859,83.595 6.5671,68.6609 6.2791,61.6409 6.9141,168.5 0.6312,106.2102 0.4885,103.4422 5.4554,105.8178 2.1604,1.0332 56.1642,0.7246 79.4911,-0.4544 z m -21.7111,-423.8245 c 15.7263,-3.2904 26.4998,-10.9943 32.5836,-23.2999 l 3.7723,-7.6303 0,-14.6023 0,-14.6023 -3.7738,-7.6397 c -6.2128,-12.5772 -19.9897,-23.0966 -35.7262,-27.2789 -7.4208,-1.9723 -27.7314,-1.9554 -35.5399,0.03 -15.6965,3.99 -31.516,15.7592 -37.4878,27.8898 -8.6985,17.6691 -4.8405,42.8637 8.495,55.4758 7.9768,7.5442 17.0145,11.3331 31.3429,13.1399 8.5231,1.0748 27.8902,0.285 36.3339,-1.4816 z"
       style="fill:#5d3a8e" />
    <path
       inkscape:connector-curvature="0"
       id="path3004"
       d="m 429.8837,2760.56 c -1.65,-1.0988 -12.675,-7.6442 -24.5,-14.5455 -34.2378,-19.9819 -50.0281,-29.8886 -90.5,-56.779 -101.7191,-67.5845 -179.185,-127.1277 -380.4015,-292.3909 -153.1753,-125.806 -230.3409,-186.3417 -310.0985,-243.2697 -195.9518,-139.8631 -359.2062,-218.9071 -525.1704,-254.2752 -91.998,-19.6055 -190.2465,-23.9431 -282.8296,-12.487 -46.9089,5.8044 -101.3367,17.0285 -145,29.9019 -5.775,1.7026 -28.95,6.9332 -51.5,11.6234 -52.0992,10.8364 -79.2912,16.8574 -112.5,24.9103 -23.1851,5.6223 -30.1902,6.8682 -56,9.9601 -89.0619,10.669 -184.5864,18.2437 -271,21.4891 -15.125,0.5681 -32.7641,1.2564 -39.1979,1.5297 -6.4339,0.2732 -11.9187,0.1397 -12.1884,-0.2968 -0.2698,-0.4364 5.8943,-5.4689 13.6979,-11.1832 88.6622,-64.9239 183.3653,-142.6648 246.7026,-202.5157 7.4523,-7.042 12.9263,-11.0187 25.0129,-18.171 106.1086,-62.7898 215.5479,-101.9597 323.4729,-115.7754 50.8252,-6.5063 112.4672,-7.2468 164.5,-1.976 178.316,18.0627 362.2348,100.8239 565,254.2431 75.1197,56.8382 157.8664,127.3528 248.9445,212.1442 60.7855,56.5897 111.1934,105.5792 232.483,225.9418 193.8017,192.3204 265.8068,260.1898 355.0725,334.6783 28.3503,23.6572 68.4182,55.43 69.9013,55.43 1.7677,0 7.4335,11.0467 -125.4021,-244.5 -134.5936,-258.9287 -192.636,-371.3422 -278.0438,-538.5 -65.3795,-127.9592 -175.9753,-350.3546 -235.2196,-473 -150.0179,-310.5611 -281.3749,-604.9418 -379.7287,-851 -13.7756,-34.4634 -67.208,-213.0336 -81.6231,-272.7835 -5.0598,-20.9726 -21.7804,-100.2585 -33.8048,-160.2957 -29.7248,-148.4151 -54.5258,-292.9133 -72.5024,-422.4208 -2.7484,-19.8 -6.815,-49.0885 -9.037,-65.0856 -2.2219,-15.9971 -4.0398,-31.8444 -4.0398,-35.2161 0,-3.3717 -0.6756,-7.6082 -1.5013,-9.4144 -0.8257,-1.8061 -3.5435,-15.6589 -6.0395,-30.7839 -16.3654,-99.1676 -37.4395,-194.1111 -62.594,-282 -61.949,-216.4475 -153.1572,-421.5776 -273.5265,-615.1695 -8.4363,-13.5683 -15.3387,-24.9308 -15.3387,-25.25 0,-0.3193 7.7625,-0.5812 17.25,-0.5821 14.4194,0 17.8243,-0.2884 20.75,-1.75 l 3.5,-1.7484 0.016,-25.5 c 0.01,-14.025 0.4127,-30.9613 0.897,-37.6362 0.8508,-11.7268 0.8103,-12.1737 -1.2015,-13.2504 -1.5133,-0.8099 -14.4584,-0.8707 -47.3969,-0.2225 -25.949,0.5106 -46.0227,0.5172 -46.971,0.015 -1.5295,-0.8092 -19.3728,-25.289 -21.9688,-30.1396 -1.202,-2.2459 -1.1459,-4.8212 1.2396,-56.9503 1.3564,-29.642 1.1993,-31.2541 -3.3351,-34.2252 -1.4865,-0.974 -15.2106,-3.2715 -38.4543,-6.4375 -19.8785,-2.7076 -36.631,-5.2246 -37.2277,-5.5934 -0.5966,-0.3688 -9.8154,-11.3332 -20.4862,-24.3654 -156.1882,-190.7535 -338.5649,-358.181 -545.6111,-500.8876 -163.4284,-112.6431 -349.1607,-211.7776 -535.5,-285.823 -265.3036,-105.4233 -540.4737,-168.7644 -829.5,-190.9416 -73.9184,-5.6718 -186.4242,-9.4198 -242,-8.0619 -15.7661,0.3853 -28.5667,0.2866 -30,-0.2313 -1.4564,-0.5261 -13.7708,-0.5815 -29.5,-0.1326 -498.5187,14.2277 -980.6515,158.1958 -1395.5,416.7058 -95.7265,59.6513 -188.548,125.7531 -271.7328,193.5116 -10.578,8.6163 -19.51,15.6661 -19.8489,15.6661 -0.8309,0 6.8545,-8.8401 26.4706,-30.4474 178.1657,-196.252 403.1298,-373.6807 659.6111,-520.2337 503.4298,-287.659 1114.6665,-451.6515 1753,-470.3233 20.35,-0.5952 42.85,-1.19 50,-1.3216 8.4668,-0.1559 4.8053,-0.3807 -10.5,-0.6446 l -23.5,-0.4053 28,-0.6765 c 36.153,-0.8734 135.1465,-0.8739 170.5,-9e-4 l 27.5,0.6791 -23.5,0.4054 c -16.2606,0.2806 -19.3412,0.4788 -10,0.6434 107.1169,1.8869 222.6076,8.514 330,18.936 31.3184,3.0394 43.5959,2.9048 89.5,-0.9808 95.6334,-8.0951 186.9648,-11.6332 300,-11.6217 123.8553,0.012 217.0514,4.1018 331.5,14.5457 177.8436,16.2289 358.482,47.0618 515.5,87.9898 267.609,69.7545 528.2429,179.1253 768,322.2787 233.6258,139.4926 446.298,311.0427 624.558,503.7942 131.0075,141.6576 242.017,292.4126 333.4841,452.8835 167.5923,294.0263 263.8461,616.5002 280.4271,939.5 0.5788,11.275 1.5552,28.6 2.1697,38.5 1.4811,23.8606 1.471,121.0979 -0.015,144 -0.6423,9.9 -1.8414,29.25 -2.6645,43 -7.8799,131.6307 -31.9622,271.6194 -71.4784,415.5 -19.4507,70.8208 -53.6116,174.7536 -77.2411,235.0023 -25.6944,65.5137 -61.7868,138.7978 -98.4988,199.9977 -17.8657,29.7825 -45.2655,68.3153 -59.7306,84 C 501.262,705.73 405.4838,875.9709 350.9247,1066.2654 c -62.0964,216.5839 -75.8197,464.2468 -43.469,784.4811 12.5796,124.5224 27.9783,237.2279 65.4751,479.2193 35.296,227.7888 46.9491,310.225 60.7889,430.0307 0.3692,3.1957 0.1625,3.226 -3.8359,0.5635 z M -273.6302,26.2874 c 48.5427,-8.3191 87.836,-30.2702 120.0563,-67.0692 12.1475,-13.8738 19.9865,-25.1902 27.414,-39.5748 11.3364,-21.9547 17.7927,-42.1498 20.6361,-64.549 1.7841,-14.0548 1.4997,-45.3546 -0.5348,-58.8479 -4.0931,-27.1465 -12.538,-50.0329 -27.0854,-73.4035 -7.2518,-11.6501 -14.4879,-20.5461 -27.2403,-33.4886 -39.333,-39.9198 -83.5685,-59.3236 -139.732,-61.2931 -52.9785,-1.8578 -97.7794,11.3442 -136,40.0767 -10.4793,7.8778 -29.9485,26.9096 -38.473,37.6085 -16.4022,20.5861 -28.4727,44.5053 -34.9343,69.2265 -5.0711,19.4015 -5.5927,24.3233 -5.5927,52.7735 0,27.8169 0.4905,32.7042 5.1691,51.5 16.9507,68.099 75.4038,125.8918 144.9448,143.3074 6.5373,1.6372 15.9361,3.4789 20.8861,4.0928 4.95,0.6139 10.35,1.2993 12,1.5231 7.4859,1.0154 49.46,-0.3356 58.4861,-1.8824 z m -47.7659,-80.5906 c -39.1427,-3.8908 -73.6047,-28.4307 -92.0757,-65.5658 -8.2451,-16.5764 -11.6167,-32.1053 -11.5907,-53.3845 0.033,-27.1079 7.4494,-49.8943 22.9983,-70.6612 22.3582,-29.8614 53.7438,-45.2978 92.1624,-45.3283 32.3693,-0.026 56.9246,9.8677 79.3973,31.9895 17.205,16.9363 27.3503,34.7213 32.6285,57.1988 2.2941,9.7694 2.6589,13.5376 2.6919,27.8012 0.029,12.4373 -0.4173,18.5929 -1.8114,25 -7.713,35.4471 -31.4491,66.6743 -62.2308,81.871 -18.2457,9.0077 -41.4352,13.1403 -62.1698,11.0793 z M 100.778,21.8782 c 1.5919,-0.3474 3.721,-1.7567 4.7314,-3.1317 1.7834,-2.4269 1.7746,-6.0826 -0.3002,-125 l -2.1372,-122.5 2.3432,-5 c 7.9078,-16.8736 51.7841,-45.8369 81.9685,-54.1084 8.4468,-2.3147 26.2848,-2.3078 38.3751,0.015 31.4637,6.0444 44.3994,20.6683 49.618,56.0936 1.8689,12.6864 3.1984,66.7059 3.8574,156.7232 l 0.6495,88.7232 2.2758,2.2768 c 2.0118,2.0128 3.4614,2.3185 12.5,2.6366 5.6233,0.1979 26.161,0.031 45.6394,-0.3697 44.2562,-0.9117 40.0901,1.3439 40.0721,-21.6946 -0.01,-8.9625 -0.7119,-35.8705 -1.5664,-59.7955 -0.8544,-23.925 -1.9325,-75.9 -2.3956,-115.5 -0.6753,-57.7373 -1.1654,-74.2781 -2.4745,-83.5 -4.8504,-34.1689 -12.1931,-54.4859 -25.5341,-70.6521 -15.2514,-18.4812 -41.0599,-30.6238 -73.0179,-34.3541 -14.0585,-1.641 -50.8838,-0.8006 -60.4988,1.3808 -13.9155,3.1569 -29.8108,8.9722 -43.7665,16.0118 -13.8389,6.9808 -22.1921,12.5022 -55.0286,36.3739 -8.6873,6.3155 -16.0451,11.2328 -16.3506,10.9274 -1.2689,-1.2689 -6.5244,-23.28 -8.7324,-36.5731 -1.4225,-8.5644 -2.975,-14.8963 -3.8723,-15.7936 -1.3305,-1.3304 -6.9576,-0.5901 -50.3505,6.6242 -30.0649,4.9984 -49.763,8.7185 -51.2198,9.673 -3.0373,1.9901 -2.7504,5.0829 2.1775,23.4729 9.0348,33.7157 15.0242,72.7307 17.6404,114.9089 0.5629,9.075 1.3182,61.9324 1.6785,117.4609 l 0.6552,100.9609 2.2891,2.2891 2.2891,2.2891 42.7954,-0.1183 c 23.5375,-0.065 44.0979,-0.4026 45.6898,-0.75 z m -738.5391,-3.7683 c 16.5902,-0.8384 15.5964,1.0991 14.7512,-28.7578 -0.3753,-13.2581 -1.3368,-40.9806 -2.1367,-61.6056 -3.6042,-92.9388 -3.6776,-123.9662 -0.4332,-183 0.5592,-10.175 1.2984,-35.7137 1.6427,-56.7526 0.7365,-45.0037 1.3705,-42.2474 -9.7178,-42.2474 -3.7008,0 -13.6435,0.9271 -22.095,2.0603 -17.2739,2.3161 -30.6829,2.5821 -46.1589,0.9159 -5.7867,-0.6231 -14.7856,-1.2101 -19.9974,-1.3045 -13.0991,-0.2373 -13.7131,0.3556 -13.7014,13.2333 0.012,12.8494 2.3711,45.8011 5.9859,83.595 6.5671,68.6609 6.2791,61.6409 6.9141,168.5 0.6312,106.2102 0.4885,103.4422 5.4554,105.8178 2.1604,1.0332 56.1642,0.7246 79.4911,-0.4544 z m -21.7111,-423.8245 c 15.7263,-3.2904 26.4998,-10.9943 32.5836,-23.2999 l 3.7723,-7.6303 0,-14.6023 0,-14.6023 -3.7738,-7.6397 c -6.2128,-12.5772 -19.9897,-23.0966 -35.7262,-27.2789 -7.4208,-1.9723 -27.7314,-1.9554 -35.5399,0.03 -15.6965,3.99 -31.516,15.7592 -37.4878,27.8898 -8.6985,17.6691 -4.8405,42.8637 8.495,55.4758 7.9768,7.5442 17.0145,11.3331 31.3429,13.1399 8.5231,1.0748 27.8902,0.285 36.3339,-1.4816 z M 400.8837,2749.6396 c -68.113,-20.3856 -125.384,-41.3305 -198,-72.4118 -82.6286,-35.3669 -157.3239,-71.5052 -353.5,-171.0265 -207.1437,-105.0852 -318.7555,-155.3846 -437.0396,-196.9581 -231.6262,-81.4098 -427.6965,-92.5108 -605.9604,-34.3076 -9.8135,3.2041 -27.5337,10.5281 -48.3012,19.9636 -60.6216,27.5427 -73.3616,32.6355 -124.1988,49.6488 -255.0324,85.3497 -518.2378,141.767 -791.5,169.6557 -97.3633,9.9367 -190.8071,15.8201 -296,18.6368 -48.9145,1.3097 -188.2662,0.679 -230.5,-1.0433 -130.5476,-5.3238 -231.3088,-13.4623 -348,-28.108 -51.6009,-6.4764 -118.3752,-16.4179 -119.7922,-17.8349 -0.4641,-0.4641 3.5743,-1.3809 8.9742,-2.0374 20.3277,-2.4714 79.831,-11.1853 106.318,-15.5697 199.3455,-32.9975 393.2653,-87.0352 579.5,-161.4834 197.9024,-79.1124 379.5063,-177.209 554.5,-299.5229 l 27.5,-19.2214 24,-0.6695 c 97.4957,-2.7199 214.9094,-11.7651 313.8262,-24.1763 13.5367,-1.6984 26.1685,-4.0582 39.8189,-7.4387 28.0979,-6.9583 66.5018,-15.4686 114.8549,-25.452 22.825,-4.7126 47.575,-10.3411 55,-12.5077 36.497,-10.6501 86.156,-21.3917 124.5,-26.9304 39.3323,-5.6815 67.4812,-7.9462 109,-8.7696 116.2417,-2.3053 235.8289,20.4774 356.5,67.9173 82.6194,32.4805 173.4666,80.0959 263.221,137.9609 109.5295,70.6142 205.1268,143.1892 406.8775,308.8911 69.7536,57.2901 118.853,97.2326 152.9015,124.386 120.9673,96.4705 214.8524,163.4974 302.6575,216.0749 12.5634,7.5229 23.27,14.0747 23.7925,14.5595 1.4512,1.3466 0,1.0512 -10.95,-2.2254 z"
       style="fill:#0a6a9b" />
    <path
       inkscape:connector-curvature="0"
       id="path3002"
       d="m 429.8837,2760.56 c -1.65,-1.0988 -12.675,-7.6442 -24.5,-14.5455 -34.2378,-19.9819 -50.0281,-29.8886 -90.5,-56.779 -101.7191,-67.5845 -179.185,-127.1277 -380.4015,-292.3909 -153.1753,-125.806 -230.3409,-186.3417 -310.0985,-243.2697 -195.9518,-139.8631 -359.2062,-218.9071 -525.1704,-254.2752 -91.998,-19.6055 -190.2465,-23.9431 -282.8296,-12.487 -46.9089,5.8044 -101.3367,17.0285 -145,29.9019 -5.775,1.7026 -28.95,6.9332 -51.5,11.6234 -52.0992,10.8364 -79.2912,16.8574 -112.5,24.9103 -23.1851,5.6223 -30.1902,6.8682 -56,9.9601 -89.0619,10.669 -184.5864,18.2437 -271,21.4891 -15.125,0.5681 -32.7641,1.2564 -39.1979,1.5297 -6.4339,0.2732 -11.9187,0.1397 -12.1884,-0.2968 -0.2698,-0.4364 5.8943,-5.4689 13.6979,-11.1832 88.6622,-64.9239 183.3653,-142.6648 246.7026,-202.5157 7.4523,-7.042 12.9263,-11.0187 25.0129,-18.171 106.1086,-62.7898 215.5479,-101.9597 323.4729,-115.7754 50.8252,-6.5063 112.4672,-7.2468 164.5,-1.976 178.316,18.0627 362.2348,100.8239 565,254.2431 75.1197,56.8382 157.8664,127.3528 248.9445,212.1442 60.7855,56.5897 111.1934,105.5792 232.483,225.9418 193.8017,192.3204 265.8068,260.1898 355.0725,334.6783 28.3503,23.6572 68.4182,55.43 69.9013,55.43 1.7677,0 7.4335,11.0467 -125.4021,-244.5 -134.5936,-258.9287 -192.636,-371.3422 -278.0438,-538.5 -65.3795,-127.9592 -175.9753,-350.3546 -235.2196,-473 -150.0179,-310.5611 -281.3749,-604.9418 -379.7287,-851 -13.7756,-34.4634 -67.208,-213.0336 -81.6231,-272.7835 -5.0598,-20.9726 -21.7804,-100.2585 -33.8048,-160.2957 -29.7248,-148.4151 -54.5258,-292.9133 -72.5024,-422.4208 -2.7484,-19.8 -6.815,-49.0885 -9.037,-65.0856 -2.2219,-15.9971 -4.0398,-31.8444 -4.0398,-35.2161 0,-3.3717 -0.6756,-7.6082 -1.5013,-9.4144 -0.8257,-1.8061 -3.5435,-15.6589 -6.0395,-30.7839 -16.3654,-99.1676 -37.4395,-194.1111 -62.594,-282 -61.949,-216.4475 -153.1572,-421.5776 -273.5265,-615.1695 -8.4363,-13.5683 -15.3387,-24.9308 -15.3387,-25.25 0,-0.3193 7.7625,-0.5812 17.25,-0.5821 14.4194,0 17.8243,-0.2884 20.75,-1.75 l 3.5,-1.7484 0.016,-25.5 c 0.01,-14.025 0.4127,-30.9613 0.897,-37.6362 0.8508,-11.7268 0.8103,-12.1737 -1.2015,-13.2504 -1.5133,-0.8099 -14.4584,-0.8707 -47.3969,-0.2225 -25.949,0.5106 -46.0227,0.5172 -46.971,0.015 -1.5295,-0.8092 -19.3728,-25.289 -21.9688,-30.1396 -1.202,-2.2459 -1.1459,-4.8212 1.2396,-56.9503 1.3564,-29.642 1.1993,-31.2541 -3.3351,-34.2252 -1.4865,-0.974 -15.2106,-3.2715 -38.4543,-6.4375 -19.8785,-2.7076 -36.631,-5.2246 -37.2277,-5.5934 -0.5966,-0.3688 -9.8154,-11.3332 -20.4862,-24.3654 -156.1882,-190.7535 -338.5649,-358.181 -545.6111,-500.8876 -163.4284,-112.6431 -349.1607,-211.7776 -535.5,-285.823 -265.3036,-105.4233 -540.4737,-168.7644 -829.5,-190.9416 -73.9184,-5.6718 -186.4242,-9.4198 -242,-8.0619 -15.7661,0.3853 -28.5667,0.2866 -30,-0.2313 -1.4564,-0.5261 -13.7708,-0.5815 -29.5,-0.1326 -498.5187,14.2277 -980.6515,158.1958 -1395.5,416.7058 -95.7265,59.6513 -188.548,125.7531 -271.7328,193.5116 -10.578,8.6163 -19.51,15.6661 -19.8489,15.6661 -0.8309,0 6.8545,-8.8401 26.4706,-30.4474 178.1657,-196.252 403.1298,-373.6807 659.6111,-520.2337 503.4298,-287.659 1114.6665,-451.6515 1753,-470.3233 20.35,-0.5952 42.85,-1.19 50,-1.3216 8.4668,-0.1559 4.8053,-0.3807 -10.5,-0.6446 l -23.5,-0.4053 28,-0.6765 c 36.153,-0.8734 135.1465,-0.8739 170.5,-9e-4 l 27.5,0.6791 -23.5,0.4054 c -16.2606,0.2806 -19.3412,0.4788 -10,0.6434 107.1169,1.8869 222.6076,8.514 330,18.936 31.3184,3.0394 43.5959,2.9048 89.5,-0.9808 95.6334,-8.0951 186.9648,-11.6332 300,-11.6217 123.8553,0.012 217.0514,4.1018 331.5,14.5457 177.8436,16.2289 358.482,47.0618 515.5,87.9898 267.609,69.7545 528.2429,179.1253 768,322.2787 233.6258,139.4926 446.298,311.0427 624.558,503.7942 131.0075,141.6576 242.017,292.4126 333.4841,452.8835 167.5923,294.0263 263.8461,616.5002 280.4271,939.5 0.5788,11.275 1.5552,28.6 2.1697,38.5 1.4811,23.8606 1.471,121.0979 -0.015,144 -0.6423,9.9 -1.8414,29.25 -2.6645,43 -7.8799,131.6307 -31.9622,271.6194 -71.4784,415.5 -19.4507,70.8208 -53.6116,174.7536 -77.2411,235.0023 -25.6944,65.5137 -61.7868,138.7978 -98.4988,199.9977 -17.8657,29.7825 -45.2655,68.3153 -59.7306,84 C 501.262,705.73 405.4838,875.9709 350.9247,1066.2654 c -62.0964,216.5839 -75.8197,464.2468 -43.469,784.4811 12.5796,124.5224 27.9783,237.2279 65.4751,479.2193 35.296,227.7888 46.9491,310.225 60.7889,430.0307 0.3692,3.1957 0.1625,3.226 -3.8359,0.5635 z M -273.6302,26.2874 c 48.5427,-8.3191 87.836,-30.2702 120.0563,-67.0692 12.1475,-13.8738 19.9865,-25.1902 27.414,-39.5748 11.3364,-21.9547 17.7927,-42.1498 20.6361,-64.549 1.7841,-14.0548 1.4997,-45.3546 -0.5348,-58.8479 -4.0931,-27.1465 -12.538,-50.0329 -27.0854,-73.4035 -7.2518,-11.6501 -14.4879,-20.5461 -27.2403,-33.4886 -39.333,-39.9198 -83.5685,-59.3236 -139.732,-61.2931 -52.9785,-1.8578 -97.7794,11.3442 -136,40.0767 -10.4793,7.8778 -29.9485,26.9096 -38.473,37.6085 -16.4022,20.5861 -28.4727,44.5053 -34.9343,69.2265 -5.0711,19.4015 -5.5927,24.3233 -5.5927,52.7735 0,27.8169 0.4905,32.7042 5.1691,51.5 16.9507,68.099 75.4038,125.8918 144.9448,143.3074 6.5373,1.6372 15.9361,3.4789 20.8861,4.0928 4.95,0.6139 10.35,1.2993 12,1.5231 7.4859,1.0154 49.46,-0.3356 58.4861,-1.8824 z m -47.7659,-80.5906 c -39.1427,-3.8908 -73.6047,-28.4307 -92.0757,-65.5658 -8.2451,-16.5764 -11.6167,-32.1053 -11.5907,-53.3845 0.033,-27.1079 7.4494,-49.8943 22.9983,-70.6612 22.3582,-29.8614 53.7438,-45.2978 92.1624,-45.3283 32.3693,-0.026 56.9246,9.8677 79.3973,31.9895 17.205,16.9363 27.3503,34.7213 32.6285,57.1988 2.2941,9.7694 2.6589,13.5376 2.6919,27.8012 0.029,12.4373 -0.4173,18.5929 -1.8114,25 -7.713,35.4471 -31.4491,66.6743 -62.2308,81.871 -18.2457,9.0077 -41.4352,13.1403 -62.1698,11.0793 z M 100.778,21.8782 c 1.5919,-0.3474 3.721,-1.7567 4.7314,-3.1317 1.7834,-2.4269 1.7746,-6.0826 -0.3002,-125 l -2.1372,-122.5 2.3432,-5 c 7.9078,-16.8736 51.7841,-45.8369 81.9685,-54.1084 8.4468,-2.3147 26.2848,-2.3078 38.3751,0.015 31.4637,6.0444 44.3994,20.6683 49.618,56.0936 1.8689,12.6864 3.1984,66.7059 3.8574,156.7232 l 0.6495,88.7232 2.2758,2.2768 c 2.0118,2.0128 3.4614,2.3185 12.5,2.6366 5.6233,0.1979 26.161,0.031 45.6394,-0.3697 44.2562,-0.9117 40.0901,1.3439 40.0721,-21.6946 -0.01,-8.9625 -0.7119,-35.8705 -1.5664,-59.7955 -0.8544,-23.925 -1.9325,-75.9 -2.3956,-115.5 -0.6753,-57.7373 -1.1654,-74.2781 -2.4745,-83.5 -4.8504,-34.1689 -12.1931,-54.4859 -25.5341,-70.6521 -15.2514,-18.4812 -41.0599,-30.6238 -73.0179,-34.3541 -14.0585,-1.641 -50.8838,-0.8006 -60.4988,1.3808 -13.9155,3.1569 -29.8108,8.9722 -43.7665,16.0118 -13.8389,6.9808 -22.1921,12.5022 -55.0286,36.3739 -8.6873,6.3155 -16.0451,11.2328 -16.3506,10.9274 -1.2689,-1.2689 -6.5244,-23.28 -8.7324,-36.5731 -1.4225,-8.5644 -2.975,-14.8963 -3.8723,-15.7936 -1.3305,-1.3304 -6.9576,-0.5901 -50.3505,6.6242 -30.0649,4.9984 -49.763,8.7185 -51.2198,9.673 -3.0373,1.9901 -2.7504,5.0829 2.1775,23.4729 9.0348,33.7157 15.0242,72.7307 17.6404,114.9089 0.5629,9.075 1.3182,61.9324 1.6785,117.4609 l 0.6552,100.9609 2.2891,2.2891 2.2891,2.2891 42.7954,-0.1183 c 23.5375,-0.065 44.0979,-0.4026 45.6898,-0.75 z m -738.5391,-3.7683 c 16.5902,-0.8384 15.5964,1.0991 14.7512,-28.7578 -0.3753,-13.2581 -1.3368,-40.9806 -2.1367,-61.6056 -3.6042,-92.9388 -3.6776,-123.9662 -0.4332,-183 0.5592,-10.175 1.2984,-35.7137 1.6427,-56.7526 0.7365,-45.0037 1.3705,-42.2474 -9.7178,-42.2474 -3.7008,0 -13.6435,0.9271 -22.095,2.0603 -17.2739,2.3161 -30.6829,2.5821 -46.1589,0.9159 -5.7867,-0.6231 -14.7856,-1.2101 -19.9974,-1.3045 -13.0991,-0.2373 -13.7131,0.3556 -13.7014,13.2333 0.012,12.8494 2.3711,45.8011 5.9859,83.595 6.5671,68.6609 6.2791,61.6409 6.9141,168.5 0.6312,106.2102 0.4885,103.4422 5.4554,105.8178 2.1604,1.0332 56.1642,0.7246 79.4911,-0.4544 z m -21.7111,-423.8245 c 15.7263,-3.2904 26.4998,-10.9943 32.5836,-23.2999 l 3.7723,-7.6303 0,-14.6023 0,-14.6023 -3.7738,-7.6397 c -6.2128,-12.5772 -19.9897,-23.0966 -35.7262,-27.2789 -7.4208,-1.9723 -27.7314,-1.9554 -35.5399,0.03 -15.6965,3.99 -31.516,15.7592 -37.4878,27.8898 -8.6985,17.6691 -4.8405,42.8637 8.495,55.4758 7.9768,7.5442 17.0145,11.3331 31.3429,13.1399 8.5231,1.0748 27.8902,0.285 36.3339,-1.4816 z"
       style="fill:#b03c21" />
    <path
       inkscape:connector-curvature="0"
       id="path3000"
       d="m 424.8837,2755.6918 c -2.2,-1.0411 -4.6202,-1.9047 -5.3783,-1.9191 -1.6634,-0.032 -44.1772,-25.2703 -67.1217,-39.8475 -47.1137,-29.9323 -106.0535,-70.9129 -158.7409,-110.3719 -65.751,-49.2428 -124.1745,-95.8419 -259.1606,-206.7087 -153.1753,-125.806 -230.3409,-186.3417 -310.0985,-243.2697 -195.9518,-139.8631 -359.2062,-218.9071 -525.1704,-254.2752 -91.998,-19.6055 -190.2465,-23.9431 -282.8296,-12.487 -46.9089,5.8044 -101.3367,17.0285 -145,29.9019 -5.775,1.7026 -28.95,6.9332 -51.5,11.6234 -52.0992,10.8364 -79.2912,16.8574 -112.5,24.9103 -23.1851,5.6223 -30.1902,6.8682 -56,9.9601 -89.0619,10.669 -184.5864,18.2437 -271,21.4891 -15.125,0.5681 -32.7641,1.2564 -39.1979,1.5297 -6.4339,0.2732 -11.9187,0.1397 -12.1884,-0.2968 -0.2698,-0.4364 5.8943,-5.4689 13.6979,-11.1832 88.6622,-64.9239 183.3653,-142.6648 246.7026,-202.5157 7.4523,-7.042 12.9263,-11.0187 25.0129,-18.171 106.1086,-62.7898 215.5479,-101.9597 323.4729,-115.7754 50.8252,-6.5063 112.4672,-7.2468 164.5,-1.976 178.316,18.0627 362.2348,100.8239 565,254.2431 75.1197,56.8382 157.8664,127.3528 248.9445,212.1442 60.7855,56.5897 111.1934,105.5792 232.483,225.9418 193.8017,192.3204 265.8068,260.1898 355.0725,334.6783 28.3503,23.6572 68.4182,55.43 69.9013,55.43 1.7677,0 7.4335,11.0467 -125.4021,-244.5 -134.5936,-258.9287 -192.636,-371.3422 -278.0438,-538.5 -65.3795,-127.9592 -175.9753,-350.3546 -235.2196,-473 -150.0179,-310.5611 -281.3749,-604.9418 -379.7287,-851 -13.7756,-34.4634 -67.208,-213.0336 -81.6231,-272.7835 -5.0598,-20.9726 -21.7804,-100.2585 -33.8048,-160.2957 -29.7199,-148.3905 -54.4935,-292.7245 -72.5048,-422.4208 -2.7497,-19.8 -6.6223,-47.7 -8.6059,-62 -3.061,-22.0675 -3.5048,-27.5141 -2.9344,-36.0105 0.6594,-9.8212 0.6237,-10.059 -1.8902,-12.5729 -2.3331,-2.333 -2.9724,-5.0176 -7.1427,-29.9895 -28.0834,-168.1659 -65.6566,-310.7502 -121.198,-459.9271 -222.0496,-581.8724 -651.0591,-1045.316 -1167.3032,-1336.7105 -103.7259,-57.5684 -210.5431,-108.3043 -317.5,-150.8056 -265.3036,-105.4233 -540.4737,-168.7644 -829.5,-190.9416 -73.5502,-5.6435 -186.8027,-9.426 -242.5,-8.0991 l -27,0.6433 7.5,-4.0619 c 23.7501,-12.8625 87.2716,-44.0122 129,-63.259 341.583,-157.5518 721.4991,-260.2714 1118,-302.2786 54.0518,-5.7265 53.5929,-5.7133 82.5,-2.3716 583.8611,67.4969 1132.3779,260.5782 1571,553.0017 150.6789,100.4556 277.2864,202.9754 399.4818,323.4784 l 30.5182,30.0954 17,9.8215 c 124.0675,71.6782 245.3048,159.4215 347.5,251.497 53.8819,48.5462 113.9345,109.3348 159.5356,161.4906 211.6726,242.0985 345.4528,522.0305 386.8621,809.5 5.5299,38.3893 9.5193,80.6989 11.6756,123.826 1.3545,27.091 0.6964,122.7954 -0.9949,144.674 -5.5456,71.7403 -8.8439,92.5959 -20.9548,132.5 -33.0593,108.9262 -138.8148,367.6249 -214.5896,524.9279 -22.4241,46.5506 -32.1789,64.1915 -52.0189,94.0721 -60.1593,90.6048 -104.7422,177.431 -141.5078,275.5894 -76.9826,205.5316 -108.0732,443.72 -93.4474,715.9106 8.2069,152.7332 29.1373,317.5006 65.9287,519 16.1842,88.638 34.028,178.2331 66.1215,332 48.9925,234.7339 66.1157,320.4353 83.317,417 13.857,77.7901 27.389,164.6746 34.0309,218.5 1.1198,9.075 2.2828,17.9625 2.5843,19.75 0.6427,3.8096 -0.1755,3.9715 -6.0423,1.1953 z"
       style="fill:#ac3414"
       sodipodi:nodetypes="ccsssssssssssccssssssssssssssssssscsccssscsssssscssssssssssssssscc" />
    <path
       inkscape:connector-curvature="0"
       id="path2998"
       d="m 424.8837,2755.6871 c -2.2,-1.0385 -4.6202,-1.9 -5.3783,-1.9144 -1.6634,-0.032 -44.1772,-25.2703 -67.1217,-39.8475 -47.1137,-29.9323 -106.0535,-70.9129 -158.7409,-110.3719 -65.751,-49.2428 -124.1745,-95.8419 -259.1606,-206.7087 -153.1753,-125.806 -230.3409,-186.3417 -310.0985,-243.2697 -195.9518,-139.8631 -359.2062,-218.9071 -525.1704,-254.2752 -91.998,-19.6055 -190.2465,-23.9431 -282.8296,-12.487 -46.9089,5.8044 -101.3367,17.0285 -145,29.9019 -5.775,1.7026 -28.95,6.9332 -51.5,11.6234 -52.0992,10.8364 -79.2912,16.8574 -112.5,24.9103 -23.1851,5.6223 -30.1902,6.8682 -56,9.9601 -89.0619,10.669 -184.5864,18.2437 -271,21.4891 -15.125,0.5681 -32.7641,1.2564 -39.1979,1.5297 -6.4339,0.2732 -11.9187,0.1397 -12.1884,-0.2968 -0.2698,-0.4364 5.8943,-5.4689 13.6979,-11.1832 88.6622,-64.9239 183.3653,-142.6648 246.7026,-202.5157 7.4523,-7.042 12.9263,-11.0187 25.0129,-18.171 106.1086,-62.7898 215.5479,-101.9597 323.4729,-115.7754 50.8252,-6.5063 112.4672,-7.2468 164.5,-1.976 178.316,18.0627 362.2348,100.8239 565,254.2431 75.1197,56.8382 157.8664,127.3528 248.9445,212.1442 60.7855,56.5897 111.1934,105.5792 232.483,225.9418 193.8017,192.3204 265.8068,260.1898 355.0725,334.6783 28.3503,23.6572 68.4182,55.43 69.9013,55.43 1.7677,0 7.4335,11.0467 -125.4021,-244.5 -134.5936,-258.9287 -192.636,-371.3422 -278.0438,-538.5 -65.3795,-127.9592 -175.9753,-350.3546 -235.2196,-473 -89.76712,-142.8272 -586.13225,-1381.25496 -370.5228,-833.5 162.0762,400.4821 356.7773,816.2172 653.5539,1395.5 59.9443,117.0061 114.7331,222.8764 264.7059,511.5 32.294,62.15 65.3113,125.708 73.3718,141.24 8.0604,15.5321 14.8009,27.808 14.9788,27.2798 0.4489,-1.3329 -13.4633,-44.6521 -34.6914,-108.0198 -33.5371,-100.1115 -58.7257,-170.8366 -132.131,-371 -80.7469,-220.1825 -111.5615,-306.7877 -148.0153,-416 -113.1582,-339.0118 -170.8054,-599.1857 -185.4556,-837 -4.693,-76.182 -4.5024,-163.442 0.5123,-234.5 11.7901,-167.0629 49.8629,-322.9744 114.5275,-469 10.5758,-23.8823 39.8778,-82.8076 51.965,-104.5 41.3324,-74.177 102.86931,-133.21296 140.3485,-207.9802 56.24671,-112.20657 95.29143,-233.34849 124.0508,-355.5242 18.90195,-80.2994 25.894,-155.1698 31.2609,-245.5 1.6868,-28.3897 1.6908,-130.3778 0.01,-159 -5.8643,-99.6425 -17.2618,-184.0272 -36.8055,-272.5 -71.4893,-323.6276 -241.6721,-630.6345 -499.7072,-901.4636 -7.596,-7.9727 -13.3305,-14.6559 -12.7432,-14.8517 1.1925,-0.3975 24.0834,12.7627 55.0542,31.6511 183.083,111.6588 343.8748,247.1682 476.6039,401.6642 181.0512,210.7427 304.9592,454.0361 358.2887,703.5 13.4262,62.8045 21.5221,120.1092 26.7018,189 2.1665,28.8146 3.0477,117.7859 1.4779,149.2174 -2.2088,44.2259 -7.486,97.2213 -11.5794,116.2826 -11.5216,53.6525 -62.5042,190.9791 -131.9794,355.5 -43.009,101.8476 -88.8582,202.2846 -115.4135,252.8242 -11.8385,22.531 -11.8114,22.4861 -29.5358,48.9975 -50.4454,75.4543 -94.7344,158.6877 -127.8004,240.1783 -104.639,257.8818 -134.2465,557.2387 -92.2274,932.5 19.4407,173.6203 50.0214,349.5279 113.9554,655.5 75.0324,359.0862 98.0258,482.1553 117.9071,631.0797 5.2167,39.0768 5.4215,41.1484 4.1011,41.4902 -0.55,0.1424 -2.8,-0.5908 -5,-1.6293 z m -1803.2634,-4301.1906 c -208.8715,-255.3323 -469.8849,-472.6486 -763.2366,-635.4605 -103.7259,-57.5684 -210.5431,-108.3043 -317.5,-150.8056 -265.3036,-105.4233 -540.4737,-168.7644 -829.5,-190.9416 -72.9832,-5.6 -185.6639,-9.3899 -242.5,-8.1562 -16.4973,0.3581 -26.1736,0.2331 -24.8755,-0.3214 8.4499,-3.6091 132.7626,-1.6568 220.8755,3.4689 490.8409,28.5533 964.7221,184.5228 1368,450.2528 226.1214,148.9972 422.3446,325.5433 591.3538,532.0534 27.6583,33.8107 12.4485,18.2999 -2.6172,-0.09 z"
       style="fill:#9e3019"
       sodipodi:nodetypes="ccsssssssssssccssssssssssssccssscsssssssaascsscsssssssssssssccccsssscsscc" />
  </g>
</svg>
