<?xml version="1.0" encoding="UTF-8" standalone="no"?>
<!-- Created with Inkscape (http://www.inkscape.org/) -->

<svg
   xmlns:dc="http://purl.org/dc/elements/1.1/"
   xmlns:cc="http://creativecommons.org/ns#"
   xmlns:rdf="http://www.w3.org/1999/02/22-rdf-syntax-ns#"
   xmlns:svg="http://www.w3.org/2000/svg"
   xmlns="http://www.w3.org/2000/svg"
   xmlns:sodipodi="http://sodipodi.sourceforge.net/DTD/sodipodi-0.dtd"
   xmlns:inkscape="http://www.inkscape.org/namespaces/inkscape"
   width="1278.98"
   height="1278.98"
   id="svg3058"
   version="1.1"
   inkscape:version="0.48.5 r10040"
   sodipodi:docname="New document 3">
  <defs
     id="defs3060" />
  <sodipodi:namedview
     id="base"
     pagecolor="#ffffff"
     bordercolor="#666666"
     borderopacity="1.0"
     inkscape:pageopacity="0.0"
     inkscape:pageshadow="2"
     inkscape:zoom="0.35"
     inkscape:cx="1158.6509"
     inkscape:cy="610.56278"
     inkscape:document-units="px"
     inkscape:current-layer="layer1"
     showgrid="false"
     fit-margin-top="0"
     fit-margin-left="0"
     fit-margin-right="0"
     fit-margin-bottom="0"
     inkscape:window-width="1536"
     inkscape:window-height="811"
     inkscape:window-x="-8"
     inkscape:window-y="-8"
     inkscape:window-maximized="1" />
  <metadata
     id="metadata3063">
    <rdf:RDF>
      <cc:Work
         rdf:about="">
        <dc:format>image/svg+xml</dc:format>
        <dc:type
           rdf:resource="http://purl.org/dc/dcmitype/StillImage" />
        <dc:title></dc:title>
      </cc:Work>
    </rdf:RDF>
  </metadata>
  <g
     inkscape:label="Layer 1"
     inkscape:groupmode="layer"
     id="layer1"
     transform="translate(1125.0794,136.05504)">
    <path
       style="fill:#282f41;fill-opacity:1"
       d="m -61.088229,1009.9068 -183.874001,-87.04827 -14.626,4.5773 c -52.4113,16.4024 -106.117,26.6188 -167.626,31.8872 -20.1126,1.7227 -98.0351,1.7153 -117.5,-0.011 -23.4113,-2.0765 -48.218,-5.1272 -67.5,-8.3011 -146.7965,-24.1637 -279.81313,-90.95557 -373.46131,-187.52694 -79.82996,-82.32182 -125.85916,-177.46641 -137.68836,-284.60807 -2.053,-18.59538 -2.3236,-64.49055 -0.4848,-82.25675 6.0423,-58.38304 20.0215,-107.48008 45.0212,-158.12216 18.4877,-37.45054 38.5877,-68.16673 66.9938,-102.37785 12.70622,-15.30275 50.36261,-52.922841 66.79502,-66.730571 94.97115,-79.801813 216.72855,-132.97808 347.32445,-151.690217 61.9731,-8.879686 128.8647,-10.280618 191.5,-4.010645 70.6341,7.070683 143.5311,25.292871 208.5,52.11907 20.0612,8.283447 63.6228,29.8478325 81.5,40.3451525 C -44.819429,48.074189 15.064771,100.79905 60.335571,161.59456 c 83.767299,112.49362 112.814799,248.1429 80.950699,378.03229 -7.9624,32.45741 -19.0484,62.63318 -34.5309,93.99232 -21.950999,44.46063 -45.273399,77.8859 -85.646499,122.7473 l -5.677,6.30804 53.9296,165.47232 c 29.6613,91.00977 54.183799,166.25977 54.494399,167.22227 0.3106,0.9625 0.1969,1.7131 -0.2527,1.668 -0.4496,-0.045 -83.560699,-39.2538 -184.691399,-87.1303 z M -542.43993,748.48858 c 9.0545,-2.05939 14.6419,-4.45393 21.8101,-9.3469 l 5.6724,-3.87198 0.5232,4.64174 c 0.3809,3.37911 1.2452,5.26274 3.1774,6.92472 3.2873,2.82767 5.5136,2.88024 8.9077,0.21042 l 2.6349,-2.07258 0,-59.85599 c 0,-53.05692 -0.1783,-60.03432 -1.57,-61.42592 -3.8171,-3.81719 -10.1163,-2.75163 -12.3196,2.08399 -0.7576,1.66283 -1.1104,15.78257 -1.1104,44.4398 0,47.2785 0.4348,44.41671 -7.9394,52.24978 -9.7589,9.12835 -25.6039,14.31449 -40.6686,13.31099 -18.7097,-1.2463 -29.3576,-8.80705 -34.6055,-24.57236 -2.0792,-6.24587 -2.2111,-8.63215 -2.5605,-46.31853 l -0.3684,-39.7334 -2.5636,-2.0166 c -3.4505,-2.71414 -6.8624,-2.53911 -9.9099,0.50836 l -2.525,2.52498 0.4047,40.22502 c 0.3477,34.57017 0.6509,41.06853 2.1569,46.22505 5.4089,18.51991 17.9858,31.15245 35.7851,35.94338 7.4064,1.99354 26.1522,1.95401 35.0685,-0.074 z m 84.6542,-0.83242 c 1.556,-0.80466 3.1087,-2.19147 3.4503,-3.08179 0.3417,-0.89033 0.6451,-10.24447 0.6744,-20.78699 l 0.053,-19.16821 11.5102,-9.5 c 6.3305,-5.22501 12.5694,-10.29792 13.8641,-11.27316 l 2.354,-1.77318 31.2059,32.9457 c 18.2932,19.31307 32.193,33.1934 33.5913,33.54438 2.7631,0.69348 7.8384,-1.62082 8.747,-3.98854 1.858,-4.84187 0.8288,-6.16928 -30.3709,-39.17206 -17.0456,-18.03073 -30.9711,-33.00815 -30.9456,-33.28314 0.025,-0.275 9.0454,-7.925 20.0442,-17 27.3818,-22.59249 26.8964,-22.12051 26.8782,-26.13487 -0.01,-1.85082 -0.3459,-3.86027 -0.75,-4.46543 -1.068,-1.59946 -4.799,-3.3997 -7.0459,-3.3997 -1.08,0 -18.9835,14.14811 -40.3158,31.85934 l -38.373,31.85935 -0.5,-51.44822 -0.5,-51.44823 -2.3608,-1.91112 c -3.2103,-2.59882 -6.7405,-2.40074 -9.6847,0.54343 l -2.4545,2.45454 0,80.11119 c 0,54.77223 0.3369,80.74084 1.0654,82.10186 0.9466,1.76876 4.0007,3.63742 6.2342,3.81446 0.4399,0.0349 2.0728,-0.59497 3.6289,-1.39962 z m -200.5937,-232.01988 c 8.1393,-1.72454 16.1673,-5.25337 22.8128,-10.02773 l 4.8524,-3.48605 0,3.86347 c 0,7.86981 7.9185,12.21473 13,7.1332 1.9552,-1.95519 2,-3.33334 2,-61.5 0,-58.16668 -0.045,-59.54483 -2,-61.5 -1.222,-1.22197 -3.3333,-2 -5.4274,-2 -4.6827,0 -7.5726,3.70902 -7.5726,9.71888 l 0,4.44917 -3.8524,-3.05117 c -4.6215,-3.66025 -12.3446,-7.63818 -18.8738,-9.72126 -7.644,-2.43874 -25.5097,-2.96877 -33.2738,-0.98714 -22.3915,5.71496 -38.9801,20.9127 -46.7814,42.85889 -2.248,6.32386 -2.5754,8.86605 -2.6057,20.23263 -0.031,11.56547 0.268,13.90646 2.7085,21.21451 10.5114,31.47672 42.4516,49.70177 75.0134,42.8026 z m -21.6798,-13.61539 c -26.1372,-3.81676 -46.0789,-33.13701 -40.3845,-59.3774 4.6483,-21.41972 20.361,-37.08873 40.6185,-40.50562 16.9187,-2.85369 36.5315,4.93562 46.2826,18.38133 l 2.8284,3.90004 0,27.69993 0,27.69992 -2.8961,3.99794 c -9.5356,13.16352 -28.9257,20.76272 -46.4489,18.20386 z m 162.6038,13.63128 c 3.7174,-0.78774 9.7924,-2.91743 13.5,-4.73263 6.424,-3.14507 6.7561,-3.48146 7.0574,-7.14847 0.4201,-5.1125 -1.8738,-7.65191 -6.9122,-7.65191 -2.0823,0 -4.0424,0.41494 -4.3559,0.92208 -0.3134,0.50715 -3.4875,1.89301 -7.0534,3.07969 -7.5085,2.49867 -19.6323,3.00711 -26.3354,1.10443 -5.7143,-1.62204 -12.3475,-7.85756 -15.2961,-14.37915 -2.3343,-5.16314 -2.3669,-5.70086 -2.6672,-43.97704 l -0.304,-38.75 28.4191,0 c 27.2367,0 28.5288,-0.0862 31.054,-2.07259 3.6439,-2.86628 3.6439,-7.98856 0,-10.85484 -2.5246,-1.98587 -3.8187,-2.07257 -30.9312,-2.07257 l -28.2963,0 -0.3188,-16.09058 c -0.3075,-15.51922 -0.4026,-16.15836 -2.6796,-18 -3.1179,-2.52181 -6.969,-2.41798 -9.8248,0.26488 -2.2288,2.09387 -2.3144,2.75568 -2.3144,17.88716 l 0,15.71285 -7.1203,0.40233 c -5.9654,0.33707 -7.4253,0.77887 -9,2.72363 -2.569,3.17257 -2.3581,6.7123 0.5748,9.64518 2.1061,2.10607 3.3839,2.45455 9,2.45455 l 6.5455,0 0.015,37.25 c 0.016,39.72014 0.4562,44.35285 5.1786,54.47261 2.7029,5.79198 10.8468,14.1558 16.3066,16.7468 9.4745,4.4962 23.3774,5.68733 35.7589,3.06359 z m 118.6241,-2.06727 c 10.0217,-3.36959 14.1171,-6.43151 14.1171,-10.55462 0,-3.71637 -3.18,-6.91111 -6.8792,-6.91111 -1.5835,0 -5.3093,1.11255 -8.2794,2.47233 -10.8014,4.94504 -25.6456,5.219 -34.6232,0.63899 -5.1666,-2.63579 -8.525,-6.72946 -11.3589,-13.84572 -2.2262,-5.59045 -2.3068,-6.9124 -2.6519,-43.5156 l -0.3559,-37.75 28.64,0 c 18.2753,0 29.3573,-0.3839 30.6221,-1.0608 4.7964,-2.56695 4.3455,-10.49772 -0.7283,-12.80948 -1.6538,-0.75355 -11.7871,-1.12972 -30.4324,-1.12972 l -27.9529,0 0,-15.92742 0,-15.92742 -2.6349,-2.07258 c -3.4952,-2.74937 -6.9109,-2.61773 -9.9106,0.38197 -2.3955,2.39553 -2.4545,2.82828 -2.4545,18 l 0,15.54545 -5.8652,0 c -7.4594,0 -11.1348,2.47557 -11.1348,7.5 0,5.00524 3.6796,7.5 11.0621,7.5 l 5.7925,0 0.4069,38.75 c 0.4333,41.25385 0.7109,43.82849 5.7728,53.54061 5.1063,9.79726 13.0029,16.11271 23.9657,19.16707 8.7111,2.42704 24.4057,1.53082 34.8829,-1.99195 z m 105.5295,2.03514 c 13.3827,-2.83511 27.9533,-11.77305 35.5111,-21.78341 4.6006,-6.0934 5.0538,-9.0483 1.9022,-12.40302 -4.0224,-4.28157 -7.2269,-3.20187 -15.2476,5.13727 -11.972,12.44733 -26.4847,17.6284 -43.4217,15.50171 -19.6526,-2.46766 -33.4929,-14.08557 -40.2797,-33.81187 -1.0322,-3.00007 -1.8767,-5.60921 -1.8767,-5.79811 0,-0.1889 22.6578,-0.34344 50.3508,-0.34344 51.905,0 55.6488,-0.26224 57.6703,-4.03945 1.4402,-2.69102 1.1935,-10.98855 -0.5872,-19.75271 -4.8665,-23.95095 -23.5615,-43.76179 -46.894,-49.69281 -6.9842,-1.77535 -19.23,-1.96995 -26.7407,-0.42494 -2.9146,0.59955 -9.1242,2.91203 -13.7992,5.13884 -16.7365,7.97199 -30.6381,25.81045 -34.5007,44.27107 -6.2454,29.84918 7.2931,59.99788 32.5007,72.37527 4.675,2.29551 11.425,4.80187 15,5.5697 8.5936,1.84568 21.8491,1.87005 30.4124,0.0559 z m -63.2035,-73.75087 c 3.4574,-19.39559 20.4493,-36.43124 39.6735,-39.77569 13.5307,-2.35394 29.1455,3.13216 39.3424,13.82258 7.5064,7.86964 11.2471,15.36815 14.194,28.45311 l 0.6193,2.75 -47.3826,0 -47.3825,0 0.9359,-5.25 z m 331.291101,72.78677 c 13.8824,-3.73407 24.0207004,-10.46399 29.3053004,-19.45313 2.4155,-4.10871 2.6947,-5.56797 2.6947,-14.08364 0,-8.53048 -0.2767,-9.97076 -2.7118,-14.11285 -7.049,-11.99073 -16.6258004,-16.44956 -49.2882004,-22.94791 -22.6574,-4.50782 -31.3255,-7.91039 -35.25,-13.83712 -5.9232,-8.94506 0.381,-20.89697 13.4499,-25.49908 16.3909,-5.77194 39.605,-3.58362 52.1074,4.91201 6.8840004,4.67778 13.1927004,2.46891 13.1927004,-4.61915 0,-3.11147 -0.5894,-4.24364 -3.2756,-6.29254 -22.1153004,-16.86813 -68.4884004,-15.00662 -85.0502004,3.41408 -5.9668,6.63651 -7.9863,12.77503 -7.527,22.87863 0.2972,6.53855 0.8303,8.53319 3.3844,12.66434 3.873,6.26427 11.067,11.68843 19.7914,14.92225 3.7819,1.40183 14.8189,4.13451 24.5266,6.07265 29.1057,5.81091 37.5512,9.37294 40.8303004,17.22093 5.3249,12.74436 -6.7843004,23.62332 -29.1198004,26.16125 -15.5593,1.76797 -32.1666,-1.10486 -46.0974,-7.97424 -9.2576,-4.56496 -10.2547,-4.70129 -13.8278,-1.89067 -2.792301,2.19641 -3.400801,5.62783 -1.5959,9.00021 2.1953,4.10198 20.7725,11.74457 35.2669,14.50867 9.2213,1.75852 30.9229,1.18008 39.1941,-1.04469 z m -940.572601,-2.17163 c 2.02294,-2.57175 2.0727,-3.65552 2.07762,-45.25 l 0.005,-42.61514 3.74496,-4.92287 c 12.74421,-16.75268 41.71286,-23.2109 62.4234,-13.91656 10.05942,4.5144 16.63182,14.09179 18.76152,27.33943 0.5839,3.63226 1.0483,22.18934 1.0525,42.06143 0.01,34.40022 0.074,35.6329 2.0465,37.75 2.6715,2.86753 7.6024,2.87412 10.6466,0.0143 l 2.3145,-2.17437 0,-36.11559 c 0,-38.97665 0.4829,-43.56231 5.4873,-52.10342 3.8466,-6.56511 10.5117,-12.5044 18.0127,-16.05114 12.3341,-5.83196 25.2058,-6.53997 39.4239,-2.16851 8.8362,2.71677 16.6976,10.45763 20.0952,19.78729 2.3005,6.31685 2.3829,7.63121 2.924,46.64706 0.5221,37.63883 0.6759,40.27846 2.4619,42.25 2.4863,2.74464 7.9007,2.79724 10.595,0.10294 1.9309,-1.93093 1.9994,-3.32116 1.9826,-40.25 -0.019,-42.34808 -0.4723,-46.69639 -6.0949,-58.49572 -3.9853,-8.36319 -13.1172,-17.69005 -21.0628,-21.51243 -17.4266,-8.38342 -41.8281,-7.62955 -59.8669,1.84956 -6.7252,3.53397 -19.958,15.85471 -19.958,18.58236 0,0.62496 -1.7378,-1.55233 -3.8617,-4.83841 -9.7661,-15.11007 -25.67885,-21.99529 -48.63832,-21.04508 -16.59158,0.68666 -27.3658,4.14432 -37.84933,12.14657 l -4.65067,3.54993 0,-4.85854 c 0,-6.43987 -2.75768,-10.12824 -7.57258,-10.12824 -2.09409,0 -4.20546,0.77803 -5.42742,2 -1.95518,1.95517 -2,3.33332 -2,61.5 0,58.16666 0.0448,59.54481 2,61.5 2.97766,2.97766 8.33043,2.66668 10.92742,-0.63486 z m 756,0 c 2.0242,-2.5733 2.0726,-3.6446 2.0726,-45.84997 l 0,-43.2151 2.8284,-3.90004 c 4.2305,-5.83343 9.8173,-10.33483 17.1242,-13.79739 6.1692,-2.92343 7.2116,-3.10003 18.0474,-3.05749 9.6146,0.0377 12.4641,0.42643 17.3808,2.37079 10.5517,4.1728 17.7833,13.30195 19.2408,24.28955 1.0633,8.0151 7.1291,11.13821 12.867,6.62479 2.5898,-2.0371 2.7258,-2.5287 2.2259,-8.04216 -1.1625,-12.82025 -11.7077,-28.30789 -23.5844,-34.63808 -18.6863,-9.9597 -46.1327,-7.73133 -62.3801,5.06464 l -3.75,2.95338 0,-3.94917 c 0,-7.95386 -7.886,-12.33293 -13,-7.21889 -1.9552,1.95518 -2,3.33333 -2,61.5 0,58.16666 0.045,59.54481 2,61.5 2.9776,2.97766 8.3304,2.66668 10.9274,-0.63486 z m -112.7789,-230.90362 c 16.2781,-4.21809 33.0834,-17.25866 39.3709,-30.55103 1.5748,-3.32927 1.58,-3.81758 0.071,-6.73552 -3.1394,-6.07092 -10.0377,-5.50027 -13.9367,1.1529 -3.3387,5.69705 -14.2052,15.79247 -20.0379,18.61602 -19.8387,9.60379 -42.6521,5.39319 -57.6508,-10.64043 -9.7611,-10.43464 -13.965,-20.93456 -13.965,-34.87963 0,-32.11323 30.3698,-56.64054 60.5399,-48.89338 12.3203,3.16363 23.2584,10.68701 30.0288,20.65421 3.6139,5.32034 5.3122,6.74265 8.0995,6.78354 3.5126,0.0515 5.3105,-1.02631 6.9273,-4.15283 1.4017,-2.71058 1.3607,-3.27447 -0.5208,-7.16096 -1.1232,-2.32028 -4.3427,-6.79983 -7.1545,-9.95455 -30.9545,-34.73018 -85.8969,-27.34674 -106.9572,14.37346 -4.4469,8.8093 -6.3103,17.20338 -6.3103,28.42668 0,12.06927 1.9375,19.95312 7.5679,30.79389 13.6965,26.37134 44.5267,39.78624 73.9279,32.16764 z m -159.8513,0.44892 c 2.8669,-1.30624 1.0421,2.37656 31.8273,-64.23405 13.6815,-29.60297 24.8755,-54.86563 24.8755,-56.1392 0,-5.75178 -7.5188,-9.09263 -11.7815,-5.23491 -0.9941,0.89957 -12.126,24.36344 -24.7377,52.14191 -12.6117,27.77847 -23.2041,50.17995 -23.5388,49.78105 -0.3347,-0.39889 -10.8575,-23.32331 -23.3841,-50.94316 -12.5266,-27.61986 -23.4257,-50.75736 -24.2201,-51.41667 -2.1434,-1.77891 -7.0318,-1.45237 -9.3249,0.6229 -1.222,1.10592 -2.0129,3.08478 -2.0129,5.03647 0,4.05 52.0962,117.20707 55.1201,119.72522 2.4403,2.03222 3.8764,2.16435 7.1771,0.66045 z m -193.842,-0.53162 c 4.3131,-1.6551 4.5448,-4.11154 4.5448,-48.17912 l 0,-41.89963 2.8284,-3.90004 c 9.5241,-13.13272 27.435,-20.45479 46.7082,-19.09467 14.9647,1.05608 25.688,7.28425 31.1709,18.10416 4.4478,8.77736 5.2196,16.92804 5.2576,55.52602 0.034,34.98265 0.063,35.46513 2.2092,37.75 2.8824,3.06815 7.2215,3.00952 10.3711,-0.1401 l 2.4546,-2.45453 -0.035,-36.29546 c -0.039,-40.98601 -0.7413,-47.61803 -6.2591,-59.1373 -7.8634,-16.41642 -20.9904,-25.33534 -40.5018,-27.51826 -17.094,-1.91247 -34.5387,1.82357 -46.7042,10.00239 l -7,4.70607 -0.6565,-5.05284 c -0.3973,-3.05823 -1.4609,-5.85734 -2.6944,-7.09084 -2.54,-2.53996 -7.4528,-2.64481 -10.1362,-0.21636 -1.9745,1.78688 -2.0129,2.96385 -2.0129,61.62772 l 0,59.80606 2.1885,2.03895 c 2.1987,2.04839 5.2567,2.57284 8.2667,1.41778 z"
       id="path3079"
       inkscape:connector-curvature="0" />
  </g>
</svg>
